<?xml version="1.0" encoding="UTF-8"?>
<!DOCTYPE svg PUBLIC "-//W3C//DTD SVG 1.1//EN" "http://www.w3.org/Graphics/SVG/1.1/DTD/svg11.dtd">
<svg xmlns="http://www.w3.org/2000/svg" version="1.1" width="1280px" height="1280px" style="shape-rendering:geometricPrecision; text-rendering:geometricPrecision; image-rendering:optimizeQuality; fill-rule:evenodd; clip-rule:evenodd" xmlns:xlink="http://www.w3.org/1999/xlink">
<g><path style="opacity:0.996" fill="#7595df" d="M 894.5,249.5 C 899.885,250.23 904.885,251.563 909.5,253.5C 904.507,253.084 899.507,252.751 894.5,252.5C 894.5,251.5 894.5,250.5 894.5,249.5 Z"/></g>
<g><path style="opacity:0.843" fill="#6080de" d="M 869.5,249.5 C 869.586,250.496 869.252,251.329 868.5,252C 864.416,252.522 860.416,253.355 856.5,254.5C 856.833,253.833 857.167,253.167 857.5,252.5C 861.648,251.986 865.648,250.986 869.5,249.5 Z"/></g>
<g><path style="opacity:1" fill="#154fed" d="M 869.5,249.5 C 877.833,249.5 886.167,249.5 894.5,249.5C 894.5,250.5 894.5,251.5 894.5,252.5C 899.507,252.751 904.507,253.084 909.5,253.5C 909.833,253.5 910.167,253.5 910.5,253.5C 910.791,254.649 911.624,255.316 913,255.5C 914.07,255.472 914.903,255.139 915.5,254.5C 915.833,254.5 916.167,254.5 916.5,254.5C 916.369,255.376 916.702,256.043 917.5,256.5C 922.748,258.895 927.748,261.729 932.5,265C 933.749,265.74 934.749,265.573 935.5,264.5C 936.338,264.842 936.672,265.508 936.5,266.5C 943.198,272.175 949.864,277.841 956.5,283.5C 962.711,290.554 969.377,297.221 976.5,303.5C 982.833,310.5 989.5,317.167 996.5,323.5C 996.833,323.5 997.167,323.5 997.5,323.5C 1001.46,329.796 1006.46,335.13 1012.5,339.5C 1013.26,341.262 1014.6,342.262 1016.5,342.5C 1016.5,343.167 1016.83,343.5 1017.5,343.5C 1021.76,349.766 1026.76,355.433 1032.5,360.5C 1033.04,362.117 1033.37,363.784 1033.5,365.5C 1035.45,365.227 1036.95,365.893 1038,367.5C 1038.33,369.833 1038.67,372.167 1039,374.5C 1040.02,373.294 1040.52,373.627 1040.5,375.5C 1039.45,377.056 1038.79,378.723 1038.5,380.5C 1039.5,380.5 1040.5,380.5 1041.5,380.5C 1041.5,379.5 1041.5,378.5 1041.5,377.5C 1042.83,377.5 1044.17,377.5 1045.5,377.5C 1045.5,378.5 1045.5,379.5 1045.5,380.5C 1047.92,380.192 1050.26,380.526 1052.5,381.5C 1053.25,382.736 1053.58,384.07 1053.5,385.5C 1054.5,385.5 1055.5,385.5 1056.5,385.5C 1061.83,390.167 1067.17,394.833 1072.5,399.5C 1072.83,399.5 1073.17,399.5 1073.5,399.5C 1074.41,403.065 1076.41,405.732 1079.5,407.5C 1081.82,410.148 1084.49,412.481 1087.5,414.5C 1089.87,417.874 1092.87,420.541 1096.5,422.5C 1096.5,422.833 1096.5,423.167 1096.5,423.5C 1099.12,428.118 1102.78,431.784 1107.5,434.5C 1108.92,436.709 1110.59,438.709 1112.5,440.5C 1113.04,442.117 1113.37,443.784 1113.5,445.5C 1115.72,445.614 1117.72,446.28 1119.5,447.5C 1123.83,451.494 1128.16,455.494 1132.5,459.5C 1132.83,459.5 1133.17,459.5 1133.5,459.5C 1133.5,460.5 1133.5,461.5 1133.5,462.5C 1134.5,462.5 1135.5,462.5 1136.5,462.5C 1136.5,462.833 1136.5,463.167 1136.5,463.5C 1137.58,465.587 1139.25,466.92 1141.5,467.5C 1141.5,467.833 1141.5,468.167 1141.5,468.5C 1142.17,469.833 1143.17,470.833 1144.5,471.5C 1144.86,473.19 1145.86,474.19 1147.5,474.5C 1149.45,477.419 1151.45,480.419 1153.5,483.5C 1154.69,484.429 1156.02,484.762 1157.5,484.5C 1157.5,485.5 1157.5,486.5 1157.5,487.5C 1159.12,487.36 1160.29,488.027 1161,489.5C 1161.4,489.272 1161.57,488.938 1161.5,488.5C 1162.17,488.5 1162.5,488.833 1162.5,489.5C 1162.37,490.239 1162.54,490.906 1163,491.5C 1163.69,492.738 1164.19,492.738 1164.5,491.5C 1164.83,491.5 1165.17,491.5 1165.5,491.5C 1165.29,493.179 1165.95,494.179 1167.5,494.5C 1167.83,494.5 1168.17,494.5 1168.5,494.5C 1168.49,497.142 1169.82,498.475 1172.5,498.5C 1172.5,499.167 1172.83,499.5 1173.5,499.5C 1173.5,500.5 1173.5,501.5 1173.5,502.5C 1174.5,502.5 1175.5,502.5 1176.5,502.5C 1177.17,505.167 1178.83,506.833 1181.5,507.5C 1181.74,509.404 1182.74,510.738 1184.5,511.5C 1184.97,512.906 1185.97,513.573 1187.5,513.5C 1187.83,514.167 1188.17,514.833 1188.5,515.5C 1188.51,517.017 1189.18,518.184 1190.5,519C 1192.4,520.421 1194.4,521.588 1196.5,522.5C 1197.17,525.167 1198.83,526.833 1201.5,527.5C 1201.74,529.404 1202.74,530.738 1204.5,531.5C 1204.83,532.167 1205.17,532.833 1205.5,533.5C 1206.49,537.826 1209.16,540.492 1213.5,541.5C 1214.21,542.404 1215.21,542.737 1216.5,542.5C 1216.71,546.376 1218.71,548.709 1222.5,549.5C 1223,552.264 1224.67,553.931 1227.5,554.5C 1227.5,556.5 1228.5,557.5 1230.5,557.5C 1231.83,557.5 1232.5,558.167 1232.5,559.5C 1232.5,561.5 1233.5,562.5 1235.5,562.5C 1235.83,562.5 1236.17,562.5 1236.5,562.5C 1236.5,563.167 1236.5,563.833 1236.5,564.5C 1237.8,567.454 1239.8,568.787 1242.5,568.5C 1242.5,568.833 1242.5,569.167 1242.5,569.5C 1243.18,571.449 1244.35,573.115 1246,574.5C 1246.38,573.944 1246.88,573.611 1247.5,573.5C 1247.5,573.833 1247.5,574.167 1247.5,574.5C 1247.83,577.5 1249.5,579.167 1252.5,579.5C 1252.5,579.833 1252.5,580.167 1252.5,580.5C 1253.66,584.976 1255.99,588.642 1259.5,591.5C 1259.96,594.406 1260.96,597.072 1262.5,599.5C 1262.4,601.553 1263.07,603.22 1264.5,604.5C 1265.6,608.705 1267.27,612.705 1269.5,616.5C 1269.5,617.167 1269.5,617.833 1269.5,618.5C 1269.83,623.833 1270.17,629.167 1270.5,634.5C 1270.63,640.203 1270.29,645.87 1269.5,651.5C 1268.6,658.901 1267.27,666.234 1265.5,673.5C 1265.5,673.833 1265.5,674.167 1265.5,674.5C 1263.93,676.102 1263.26,678.102 1263.5,680.5C 1263.5,680.833 1263.5,681.167 1263.5,681.5C 1260.71,682.392 1259.37,684.392 1259.5,687.5C 1257.2,688.733 1255.87,690.733 1255.5,693.5C 1255.5,693.833 1255.5,694.167 1255.5,694.5C 1253.86,694.48 1252.52,695.147 1251.5,696.5C 1249.42,700.031 1247.09,703.364 1244.5,706.5C 1241.45,708.882 1238.79,711.548 1236.5,714.5C 1236.5,715.167 1236.5,715.833 1236.5,716.5C 1236.17,716.5 1235.83,716.5 1235.5,716.5C 1231.28,718.535 1227.94,721.535 1225.5,725.5C 1221.12,728.884 1217.12,732.551 1213.5,736.5C 1213.17,737.167 1212.83,737.833 1212.5,738.5C 1210.14,739.865 1208.47,741.865 1207.5,744.5C 1207.5,744.833 1207.5,745.167 1207.5,745.5C 1206.88,745.389 1206.38,745.056 1206,744.5C 1204.56,745.9 1203.73,747.567 1203.5,749.5C 1202.83,750.167 1202.17,750.833 1201.5,751.5C 1201.63,750.761 1201.46,750.094 1201,749.5C 1198.5,751.174 1197,753.507 1196.5,756.5C 1194.37,756.554 1193.03,757.554 1192.5,759.5C 1192.5,759.833 1192.5,760.167 1192.5,760.5C 1191.88,760.389 1191.38,760.056 1191,759.5C 1189.35,760.885 1188.18,762.551 1187.5,764.5C 1182.44,767.223 1178.78,771.223 1176.5,776.5C 1174.37,776.554 1173.03,777.554 1172.5,779.5C 1170.07,780.265 1168.74,781.931 1168.5,784.5C 1168.17,784.5 1167.83,784.5 1167.5,784.5C 1162.85,787.145 1159.19,790.812 1156.5,795.5C 1156.5,795.833 1156.5,796.167 1156.5,796.5C 1154.4,797.412 1152.4,798.579 1150.5,800C 1149.18,800.816 1148.51,801.983 1148.5,803.5C 1147.76,803.369 1147.09,803.536 1146.5,804C 1142.89,807.628 1139.55,811.461 1136.5,815.5C 1136.5,815.833 1136.5,816.167 1136.5,816.5C 1134.82,816.285 1133.82,816.952 1133.5,818.5C 1133.5,819.167 1133.17,819.5 1132.5,819.5C 1127.17,823.5 1122.5,828.167 1118.5,833.5C 1115.43,834.301 1113.76,836.301 1113.5,839.5C 1113.17,839.5 1112.83,839.5 1112.5,839.5C 1106.52,844.146 1101.19,849.479 1096.5,855.5C 1096.5,855.833 1096.5,856.167 1096.5,856.5C 1091.08,860.085 1086.08,864.252 1081.5,869C 1072.67,878.5 1063.5,887.667 1054,896.5C 1053.52,897.448 1053.35,898.448 1053.5,899.5C 1053.17,899.5 1052.83,899.5 1052.5,899.5C 1039.95,910.903 1027.62,922.569 1015.5,934.5C 1011.18,939.982 1006.35,944.982 1001,949.5C 999.579,951.405 998.412,953.405 997.5,955.5C 996.833,955.5 996.5,955.833 996.5,956.5C 995.325,956.281 994.325,956.614 993.5,957.5C 987.525,963.296 981.859,969.296 976.5,975.5C 975.761,975.369 975.094,975.536 974.5,976C 968.612,982.717 962.612,989.217 956.5,995.5C 945.813,1005.69 933.813,1014.19 920.5,1021C 917.301,1021.4 914.301,1022.23 911.5,1023.5C 905.415,1025.51 899.082,1026.51 892.5,1026.5C 892.5,1027.5 892.5,1028.5 892.5,1029.5C 884.833,1029.5 877.167,1029.5 869.5,1029.5C 869.586,1028.5 869.252,1027.67 868.5,1027C 850.145,1024.15 833.811,1016.98 819.5,1005.5C 812.947,999.339 806.947,992.672 801.5,985.5C 800.545,983.254 799.878,980.921 799.5,978.5C 798.5,978.5 797.5,978.5 796.5,978.5C 794.003,971 791.336,963.667 788.5,956.5C 788.598,954.447 787.931,952.78 786.5,951.5C 786.5,950.5 786.5,949.5 786.5,948.5C 786.5,946.833 786.5,945.167 786.5,943.5C 786.5,936.167 786.5,928.833 786.5,921.5C 787.167,917.167 787.833,912.833 788.5,908.5C 789.881,904.263 790.881,899.93 791.5,895.5C 793.951,892.26 795.618,888.593 796.5,884.5C 797.15,884.196 797.817,883.863 798.5,883.5C 801.213,878.805 803.88,874.138 806.5,869.5C 807.167,869.167 807.833,868.833 808.5,868.5C 810.543,867.421 811.876,865.754 812.5,863.5C 814.587,862.415 815.92,860.749 816.5,858.5C 816.833,858.5 817.167,858.5 817.5,858.5C 820.367,856.481 823.033,854.148 825.5,851.5C 826.386,850.675 826.719,849.675 826.5,848.5C 826.833,848.5 827.167,848.5 827.5,848.5C 829.5,847.167 831.167,845.5 832.5,843.5C 834.893,842.647 836.226,840.981 836.5,838.5C 836.833,838.5 837.167,838.5 837.5,838.5C 840.367,836.481 843.033,834.148 845.5,831.5C 846.386,830.675 846.719,829.675 846.5,828.5C 846.833,828.5 847.167,828.5 847.5,828.5C 849.833,827.5 851.5,825.833 852.5,823.5C 854.929,822.735 856.262,821.069 856.5,818.5C 856.833,818.5 857.167,818.5 857.5,818.5C 863.704,813.141 869.704,807.475 875.5,801.5C 876.386,800.675 876.719,799.675 876.5,798.5C 876.833,798.5 877.167,798.5 877.5,798.5C 877.435,798.938 877.601,799.272 878,799.5C 881.032,795.641 884.198,791.974 887.5,788.5C 888.5,788.167 889.167,787.5 889.5,786.5C 891.5,785.167 893.167,783.5 894.5,781.5C 896.048,781.179 896.715,780.179 896.5,778.5C 896.833,778.5 897.167,778.5 897.5,778.5C 897.435,778.938 897.601,779.272 898,779.5C 900.415,776.986 902.581,774.319 904.5,771.5C 906.144,771.19 907.144,770.19 907.5,768.5C 908.5,768.167 909.167,767.5 909.5,766.5C 911.144,766.19 912.144,765.19 912.5,763.5C 913.5,763.167 914.167,762.5 914.5,761.5C 916.048,761.179 916.715,760.179 916.5,758.5C 916.833,758.5 917.167,758.5 917.5,758.5C 917.435,758.938 917.601,759.272 918,759.5C 920.415,756.986 922.581,754.319 924.5,751.5C 927.479,749.188 930.146,746.521 932.5,743.5C 933.5,743.167 934.167,742.5 934.5,741.5C 936.048,741.179 936.715,740.179 936.5,738.5C 936.833,738.5 937.167,738.5 937.5,738.5C 937.435,738.938 937.601,739.272 938,739.5C 941.699,734.973 945.532,730.639 949.5,726.5C 951.5,725.167 953.167,723.5 954.5,721.5C 957.288,720.774 959.288,719.107 960.5,716.5C 963.698,713.388 966.698,710.055 969.5,706.5C 970.833,705.5 972.167,704.5 973.5,703.5C 975.914,702.089 977.581,700.089 978.5,697.5C 980.923,696.05 982.923,694.05 984.5,691.5C 988.119,688.548 991.452,685.215 994.5,681.5C 996.833,681.167 998.167,679.833 998.5,677.5C 1004.09,672.575 1009.42,667.242 1014.5,661.5C 1016.05,661.179 1016.71,660.179 1016.5,658.5C 1016.83,658.5 1017.17,658.5 1017.5,658.5C 1017.43,658.938 1017.6,659.272 1018,659.5C 1018.67,658.167 1019.67,657.167 1021,656.5C 1026.05,650.954 1030.89,645.287 1035.5,639.5C 1035.28,637.945 1034.61,636.611 1033.5,635.5C 1028.79,631.123 1024.13,626.79 1019.5,622.5C 1019.01,621.527 1018.51,620.527 1018,619.5C 1017.6,619.728 1017.43,620.062 1017.5,620.5C 1017.17,620.5 1016.83,620.5 1016.5,620.5C 1016.71,618.821 1016.05,617.821 1014.5,617.5C 1010.09,611.418 1004.75,606.418 998.5,602.5C 998.167,601.5 997.5,600.833 996.5,600.5C 996.715,598.821 996.048,597.821 994.5,597.5C 991.479,593.812 988.146,590.479 984.5,587.5C 983.117,584.784 981.117,582.784 978.5,581.5C 977.833,581.167 977.167,580.833 976.5,580.5C 976.715,578.821 976.048,577.821 974.5,577.5C 973.578,575.184 971.911,573.517 969.5,572.5C 968.478,570.145 966.812,568.478 964.5,567.5C 963.117,564.784 961.117,562.784 958.5,561.5C 957.833,561.167 957.167,560.833 956.5,560.5C 955.607,556.605 953.274,553.938 949.5,552.5C 949.167,551.5 948.5,550.833 947.5,550.5C 947.167,550.5 946.833,550.5 946.5,550.5C 946.715,548.821 946.048,547.821 944.5,547.5C 942.581,544.681 940.415,542.014 938,539.5C 937.601,539.728 937.435,540.062 937.5,540.5C 937.167,540.5 936.833,540.5 936.5,540.5C 936.649,539.448 936.483,538.448 936,537.5C 927.303,528.968 918.47,520.635 909.5,512.5C 908.478,510.145 906.812,508.478 904.5,507.5C 902.194,503.194 898.861,499.861 894.5,497.5C 893.164,495.99 891.997,494.323 891,492.5C 890.184,491.177 889.017,490.511 887.5,490.5C 887.167,490.5 886.833,490.5 886.5,490.5C 885.003,487.528 883.003,484.861 880.5,482.5C 878.431,479.427 875.764,477.094 872.5,475.5C 868.133,469.827 863.133,464.827 857.5,460.5C 857.167,460.5 856.833,460.5 856.5,460.5C 856.631,457.633 855.297,455.967 852.5,455.5C 851.478,453.145 849.812,451.478 847.5,450.5C 847.167,450.5 846.833,450.5 846.5,450.5C 844.255,446.911 841.588,443.578 838.5,440.5C 837.833,440.5 837.167,440.5 836.5,440.5C 836.226,438.019 834.893,436.353 832.5,435.5C 826.264,428.386 819.597,421.719 812.5,415.5C 811.222,415.218 810.222,414.551 809.5,413.5C 807.113,409.072 804.446,404.738 801.5,400.5C 800.542,397.61 798.876,395.277 796.5,393.5C 791.666,383.034 788.333,372.034 786.5,360.5C 786.5,352.167 786.5,343.833 786.5,335.5C 786.5,333.833 786.5,332.167 786.5,330.5C 788.605,327.592 789.605,324.258 789.5,320.5C 790.167,317.833 790.833,315.167 791.5,312.5C 793.685,308.787 795.352,304.787 796.5,300.5C 797.5,300.5 798.5,300.5 799.5,300.5C 800.545,296.741 801.878,293.074 803.5,289.5C 804.496,289.586 805.329,289.252 806,288.5C 810.661,282.673 815.494,277.007 820.5,271.5C 820.5,271.167 820.5,270.833 820.5,270.5C 825.069,270.723 828.069,268.723 829.5,264.5C 829.833,264.5 830.167,264.5 830.5,264.5C 830.435,264.938 830.601,265.272 831,265.5C 838.981,260.592 847.481,256.925 856.5,254.5C 860.416,253.355 864.416,252.522 868.5,252C 869.252,251.329 869.586,250.496 869.5,249.5 Z"/></g>
<g><path style="opacity:0.89" fill="#687ccb" d="M 384.5,249.5 C 384.5,250.5 384.5,251.5 384.5,252.5C 378.494,252.584 372.661,253.584 367,255.5C 365.93,255.472 365.097,255.139 364.5,254.5C 370.975,252.47 377.642,250.803 384.5,249.5 Z"/></g>
<g><path style="opacity:0.573" fill="#9ba9dd" d="M 910.5,253.5 C 912.216,253.629 913.883,253.962 915.5,254.5C 914.903,255.139 914.07,255.472 913,255.5C 911.624,255.316 910.791,254.649 910.5,253.5 Z"/></g>
<g><path style="opacity:0.502" fill="#a8c1e9" d="M 916.5,254.5 C 924.135,256.817 930.468,260.15 935.5,264.5C 934.749,265.573 933.749,265.74 932.5,265C 927.748,261.729 922.748,258.895 917.5,256.5C 916.702,256.043 916.369,255.376 916.5,254.5 Z"/></g>
<g><path style="opacity:1" fill="#083fd9" d="M 384.5,249.5 C 385.833,249.5 387.167,249.5 388.5,249.5C 411.153,249.83 432.153,255.83 451.5,267.5C 452.914,269.138 452.58,270.472 450.5,271.5C 451.167,272.5 451.833,273.5 452.5,274.5C 456.909,276.516 461.242,278.516 465.5,280.5C 471.917,286.579 477.584,293.246 482.5,300.5C 485.424,308.772 488.258,317.105 491,325.5C 491.383,326.056 491.883,326.389 492.5,326.5C 492.5,327.5 492.5,328.5 492.5,329.5C 492.5,331.5 492.5,333.5 492.5,335.5C 492.5,343.833 492.5,352.167 492.5,360.5C 489.257,381.878 480.091,400.211 465,415.5C 463.562,416.9 462.729,418.567 462.5,420.5C 461.833,420.5 461.167,420.5 460.5,420.5C 455.533,425.633 450.366,430.633 445,435.5C 443.562,436.9 442.729,438.567 442.5,440.5C 442.167,440.5 441.833,440.5 441.5,440.5C 437.26,442.771 434.26,446.105 432.5,450.5C 432.167,450.5 431.833,450.5 431.5,450.5C 421.885,459.279 412.385,468.279 403,477.5C 402.517,478.448 402.351,479.448 402.5,480.5C 402.167,480.5 401.833,480.5 401.5,480.5C 396.521,483.479 392.521,487.479 389.5,492.5C 385.726,493.938 383.393,496.605 382.5,500.5C 381.5,501.167 380.5,501.833 379.5,502.5C 373.854,506.812 368.854,511.812 364.5,517.5C 362.952,517.821 362.285,518.821 362.5,520.5C 362.167,520.5 361.833,520.5 361.5,520.5C 361.565,520.062 361.399,519.728 361,519.5C 357.149,523.906 353.316,528.239 349.5,532.5C 347.228,533.927 345.061,535.594 343,537.5C 342.517,538.448 342.351,539.448 342.5,540.5C 341.5,541.167 340.5,541.833 339.5,542.5C 333.89,547.271 328.39,552.271 323,557.5C 322.517,558.448 322.351,559.448 322.5,560.5C 321.833,560.833 321.167,561.167 320.5,561.5C 314.583,566.577 308.75,571.91 303,577.5C 302.517,578.448 302.351,579.448 302.5,580.5C 301.833,580.833 301.167,581.167 300.5,581.5C 294.583,586.577 288.75,591.91 283,597.5C 282.517,598.448 282.351,599.448 282.5,600.5C 282.167,600.5 281.833,600.5 281.5,600.5C 281.565,600.062 281.399,599.728 281,599.5C 275.509,605.124 270.009,610.791 264.5,616.5C 263.571,617.689 263.238,619.022 263.5,620.5C 262.833,620.5 262.167,620.5 261.5,620.5C 261.565,620.062 261.399,619.728 261,619.5C 254.62,626.044 248.453,632.711 242.5,639.5C 248.936,647.681 256.27,655.015 264.5,661.5C 272.252,670.517 280.586,678.851 289.5,686.5C 292.469,689.642 295.302,692.975 298,696.5C 298.671,697.252 299.504,697.586 300.5,697.5C 302.757,701.151 305.757,704.151 309.5,706.5C 312.576,710.849 316.243,714.516 320.5,717.5C 320.369,718.239 320.536,718.906 321,719.5C 327.367,725.074 333.534,730.741 339.5,736.5C 339.369,737.239 339.536,737.906 340,738.5C 340.69,739.738 341.19,739.738 341.5,738.5C 341.833,738.5 342.167,738.5 342.5,738.5C 343.369,742.374 345.703,745.041 349.5,746.5C 353.468,750.639 357.301,754.973 361,759.5C 361.399,759.272 361.565,758.938 361.5,758.5C 361.833,758.5 362.167,758.5 362.5,758.5C 362.285,760.179 362.952,761.179 364.5,761.5C 366.167,764.5 368.5,766.833 371.5,768.5C 371.833,768.5 372.167,768.5 372.5,768.5C 373.894,771.932 376.227,774.599 379.5,776.5C 379.369,777.239 379.536,777.906 380,778.5C 380.69,779.738 381.19,779.738 381.5,778.5C 381.833,778.5 382.167,778.5 382.5,778.5C 382.285,780.179 382.952,781.179 384.5,781.5C 385.522,783.855 387.188,785.522 389.5,786.5C 389.833,787.5 390.5,788.167 391.5,788.5C 391.833,788.5 392.167,788.5 392.5,788.5C 395.045,792.234 397.878,795.901 401,799.5C 401.399,799.272 401.565,798.938 401.5,798.5C 401.833,798.5 402.167,798.5 402.5,798.5C 404.749,802.42 407.749,805.754 411.5,808.5C 411.833,808.5 412.167,808.5 412.5,808.5C 414.167,812.167 416.833,814.833 420.5,816.5C 420.833,817.5 421.5,818.167 422.5,818.5C 422.281,819.675 422.614,820.675 423.5,821.5C 425.967,824.148 428.633,826.481 431.5,828.5C 431.833,828.5 432.167,828.5 432.5,828.5C 432.281,829.675 432.614,830.675 433.5,831.5C 435.967,834.148 438.633,836.481 441.5,838.5C 441.833,838.5 442.167,838.5 442.5,838.5C 442.351,839.552 442.517,840.552 443,841.5C 445.726,844.069 448.56,846.402 451.5,848.5C 451.833,848.5 452.167,848.5 452.5,848.5C 454.745,852.089 457.412,855.422 460.5,858.5C 461.167,858.5 461.833,858.5 462.5,858.5C 462.774,860.981 464.107,862.647 466.5,863.5C 474.601,873.521 481.601,884.188 487.5,895.5C 488.396,901.836 490.063,907.836 492.5,913.5C 492.5,913.833 492.5,914.167 492.5,914.5C 492.5,915.833 492.5,917.167 492.5,918.5C 492.5,926.833 492.5,935.167 492.5,943.5C 492.5,945.5 492.5,947.5 492.5,949.5C 492.5,950.167 492.5,950.833 492.5,951.5C 489.473,955.9 487.806,960.9 487.5,966.5C 485.315,970.213 483.648,974.213 482.5,978.5C 481.5,978.5 480.5,978.5 479.5,978.5C 478.824,982.187 477.324,985.52 475,988.5C 469.917,994.737 464.75,1000.74 459.5,1006.5C 459.5,1007.17 459.167,1007.5 458.5,1007.5C 458.565,1007.06 458.399,1006.73 458,1006.5C 457.097,1007.7 455.931,1008.53 454.5,1009C 453.748,1009.67 453.414,1010.5 453.5,1011.5C 453.167,1011.5 452.833,1011.5 452.5,1011.5C 442.881,1016.74 432.881,1021.07 422.5,1024.5C 418.215,1025.21 413.882,1025.71 409.5,1026C 407.574,1026.42 406.574,1027.59 406.5,1029.5C 399.167,1029.5 391.833,1029.5 384.5,1029.5C 384.586,1028.5 384.252,1027.67 383.5,1027C 377.929,1026.77 372.595,1025.61 367.5,1023.5C 363.87,1022.36 360.203,1021.19 356.5,1020C 350.984,1017.08 345.651,1013.91 340.5,1010.5C 339.833,1010.5 339.167,1010.5 338.5,1010.5C 337.735,1008.07 336.069,1006.74 333.5,1006.5C 331.249,1003.24 328.583,1000.24 325.5,997.5C 324.675,996.614 323.675,996.281 322.5,996.5C 322.5,995.833 322.167,995.5 321.5,995.5C 317.199,989.531 312.199,984.198 306.5,979.5C 305.952,977.468 304.619,976.468 302.5,976.5C 302.5,975.833 302.167,975.5 301.5,975.5C 299.934,972.588 297.934,969.921 295.5,967.5C 291.407,963.395 287.073,959.728 282.5,956.5C 282.5,955.833 282.167,955.5 281.5,955.5C 279.934,952.588 277.934,949.921 275.5,947.5C 271.1,943.428 266.767,939.428 262.5,935.5C 256.478,928.423 249.812,922.089 242.5,916.5C 242.5,916.167 242.5,915.833 242.5,915.5C 230.945,903.06 218.945,891.06 206.5,879.5C 205.738,877.738 204.404,876.738 202.5,876.5C 202.5,876.167 202.5,875.833 202.5,875.5C 197.833,869.5 192.5,864.167 186.5,859.5C 185.738,857.738 184.404,856.738 182.5,856.5C 182.5,856.167 182.5,855.833 182.5,855.5C 177.833,849.5 172.5,844.167 166.5,839.5C 165.738,837.738 164.404,836.738 162.5,836.5C 162.5,836.167 162.5,835.833 162.5,835.5C 157.785,829.452 152.452,824.118 146.5,819.5C 146.167,817.5 145.833,815.5 145.5,813.5C 144.167,813.5 142.833,813.5 141.5,813.5C 140.441,811.445 138.775,810.111 136.5,809.5C 136.167,808.5 135.5,807.833 134.5,807.5C 132.056,802.963 128.722,799.296 124.5,796.5C 123.833,796.5 123.167,796.5 122.5,796.5C 122.5,796.167 122.5,795.833 122.5,795.5C 120.812,791.812 118.145,789.145 114.5,787.5C 114.144,785.81 113.144,784.81 111.5,784.5C 110.833,784.5 110.5,784.167 110.5,783.5C 109.833,781.5 108.5,780.167 106.5,779.5C 105.833,779.167 105.167,778.833 104.5,778.5C 104.5,777.167 103.833,776.5 102.5,776.5C 100.032,771.426 96.365,767.426 91.5,764.5C 90.4782,762.145 88.8116,760.478 86.5,759.5C 86.631,758.761 86.4643,758.094 86,757.5C 80.9627,752.626 75.796,747.96 70.5,743.5C 69.8333,741.5 68.5,740.167 66.5,739.5C 66.5,738.167 65.8333,737.5 64.5,737.5C 64.5,736.833 64.1667,736.5 63.5,736.5C 62.3839,732.383 59.7172,730.05 55.5,729.5C 55.5,729.167 55.5,728.833 55.5,728.5C 54.8776,726.878 53.8776,725.545 52.5,724.5C 51.5494,722.38 50.0494,720.714 48,719.5C 47.5357,720.094 47.369,720.761 47.5,721.5C 46.6618,721.158 46.3284,720.492 46.5,719.5C 46.5,718.833 46.5,718.167 46.5,717.5C 45.9522,715.468 44.6188,714.468 42.5,714.5C 40.1986,710.865 37.1986,707.865 33.5,705.5C 28.0012,698.747 23.0012,691.747 18.5,684.5C 18.1436,682.81 17.1436,681.81 15.5,681.5C 15.5,681.167 15.5,680.833 15.5,680.5C 13.9685,675.235 12.6352,669.901 11.5,664.5C 11.3713,662.784 11.038,661.117 10.5,659.5C 11.5,659.5 12.5,659.5 13.5,659.5C 13.7112,652.749 13.0445,646.083 11.5,639.5C 13.0445,632.917 13.7112,626.251 13.5,619.5C 12.5,619.5 11.5,619.5 10.5,619.5C 12.2932,612.535 13.9599,605.535 15.5,598.5C 15.5,598.167 15.5,597.833 15.5,597.5C 18.639,595.915 20.3056,593.248 20.5,589.5C 23.6278,586.602 26.2945,583.268 28.5,579.5C 30.2785,578.33 31.2785,576.664 31.5,574.5C 35.7966,571.871 39.4633,568.537 42.5,564.5C 45.4701,564.254 46.8034,562.588 46.5,559.5C 46.5,558.167 47.1667,557.5 48.5,557.5C 52.1667,554.167 55.8333,550.833 59.5,547.5C 60.1667,546.167 61.1667,545.167 62.5,544.5C 63.675,544.719 64.675,544.386 65.5,543.5C 66.961,541.483 68.2943,539.483 69.5,537.5C 74.2294,532.776 78.5627,527.776 82.5,522.5C 84.4044,522.262 85.7377,521.262 86.5,519.5C 87.8195,518.058 89.4862,517.392 91.5,517.5C 91.5,516.5 91.5,515.5 91.5,514.5C 94.5,512.167 97.1667,509.5 99.5,506.5C 101.262,505.738 102.262,504.404 102.5,502.5C 104.5,502.5 105.5,501.5 105.5,499.5C 105.833,499.5 106.167,499.5 106.5,499.5C 108.812,498.522 110.478,496.855 111.5,494.5C 113.167,493.167 114.833,491.833 116.5,490.5C 122.833,485.5 128.5,479.833 133.5,473.5C 134.833,471.833 136.167,470.167 137.5,468.5C 137.5,468.167 137.5,467.833 137.5,467.5C 139.749,466.92 141.415,465.587 142.5,463.5C 142.5,463.167 142.5,462.833 142.5,462.5C 144.5,462.5 145.5,461.5 145.5,459.5C 145.833,459.5 146.167,459.5 146.5,459.5C 152.452,454.882 157.785,449.548 162.5,443.5C 162.5,443.167 162.5,442.833 162.5,442.5C 169.778,436.891 176.444,430.558 182.5,423.5C 182.5,423.167 182.5,422.833 182.5,422.5C 184.404,422.262 185.738,421.262 186.5,419.5C 192.5,414.833 197.833,409.5 202.5,403.5C 202.5,403.167 202.5,402.833 202.5,402.5C 209.111,397.226 215.445,391.56 221.5,385.5C 224.702,385.463 226.368,383.797 226.5,380.5C 226.5,380.167 226.5,379.833 226.5,379.5C 232.463,374.373 238.296,369.04 244,363.5C 250.065,356.942 255.898,350.275 261.5,343.5C 262.167,343.5 262.5,343.167 262.5,342.5C 265.075,341.272 267.408,339.605 269.5,337.5C 273.979,333.184 277.979,328.517 281.5,323.5C 282.167,323.5 282.5,323.167 282.5,322.5C 289.833,317.167 296.167,310.833 301.5,303.5C 301.833,303.5 302.167,303.5 302.5,303.5C 309.558,297.444 315.891,290.778 321.5,283.5C 322.167,283.5 322.5,283.167 322.5,282.5C 326.656,279.189 330.99,276.023 335.5,273C 336.748,271.6 337.748,270.1 338.5,268.5C 343.339,267.074 347.672,264.574 351.5,261C 354.925,259.751 358.258,258.251 361.5,256.5C 362.298,256.043 362.631,255.376 362.5,254.5C 363.167,254.5 363.833,254.5 364.5,254.5C 365.097,255.139 365.93,255.472 367,255.5C 372.661,253.584 378.494,252.584 384.5,252.5C 384.5,251.5 384.5,250.5 384.5,249.5 Z"/></g>
<g><path style="opacity:0.608" fill="#819fe7" d="M 857.5,252.5 C 857.167,253.167 856.833,253.833 856.5,254.5C 847.481,256.925 838.981,260.592 831,265.5C 830.601,265.272 830.435,264.938 830.5,264.5C 832.927,262.442 835.593,260.609 838.5,259C 844.637,256.178 850.97,254.012 857.5,252.5 Z"/></g>
<g><path style="opacity:0.545" fill="#95aee0" d="M 362.5,254.5 C 362.631,255.376 362.298,256.043 361.5,256.5C 358.258,258.251 354.925,259.751 351.5,261C 347.672,264.574 343.339,267.074 338.5,268.5C 345.488,262.293 353.488,257.626 362.5,254.5 Z"/></g>
<g><path style="opacity:0.843" fill="#7f96dd" d="M 388.5,249.5 C 402.066,249.006 415.399,250.506 428.5,254C 432.927,256.547 437.594,258.547 442.5,260C 446.331,262.019 449.664,264.519 452.5,267.5C 452.167,267.5 451.833,267.5 451.5,267.5C 432.153,255.83 411.153,249.83 388.5,249.5 Z"/></g>
<g><path style="opacity:0.561" fill="#b0b9ec" d="M 829.5,264.5 C 828.069,268.723 825.069,270.723 820.5,270.5C 823.447,268.505 826.447,266.505 829.5,264.5 Z"/></g>
<g><path style="opacity:1" fill="#1946cc" d="M 451.5,267.5 C 451.833,267.5 452.167,267.5 452.5,267.5C 452.833,267.5 453.167,267.5 453.5,267.5C 458.144,271.147 462.144,275.481 465.5,280.5C 461.242,278.516 456.909,276.516 452.5,274.5C 451.833,273.5 451.167,272.5 450.5,271.5C 452.58,270.472 452.914,269.138 451.5,267.5 Z"/></g>
<g><path style="opacity:0.016" fill="#adc4eb" d="M 936.5,266.5 C 939.005,266.98 941.338,267.98 943.5,269.5C 946.651,272.15 949.651,274.984 952.5,278C 953.448,278.483 954.448,278.649 955.5,278.5C 955.629,280.216 955.962,281.883 956.5,283.5C 949.864,277.841 943.198,272.175 936.5,266.5 Z"/></g>
<g><path style="opacity:0.502" fill="#a2bce8" d="M 338.5,268.5 C 337.748,270.1 336.748,271.6 335.5,273C 330.99,276.023 326.656,279.189 322.5,282.5C 326.66,276.431 331.994,271.764 338.5,268.5 Z"/></g>
<g><path style="opacity:0.333" fill="#afc9ea" d="M 820.5,271.5 C 815.494,277.007 810.661,282.673 806,288.5C 805.329,289.252 804.496,289.586 803.5,289.5C 807.564,281.972 813.23,275.972 820.5,271.5 Z"/></g>
<g><path style="opacity:0.388" fill="#bcc6ef" d="M 321.5,283.5 C 315.891,290.778 309.558,297.444 302.5,303.5C 302.539,302.417 302.873,301.417 303.5,300.5C 309.593,294.734 315.593,289.068 321.5,283.5 Z"/></g>
<g><path style="opacity:0.4" fill="#9ab1e5" d="M 453.5,267.5 C 466.711,276.002 476.377,287.002 482.5,300.5C 477.584,293.246 471.917,286.579 465.5,280.5C 462.144,275.481 458.144,271.147 453.5,267.5 Z"/></g>
<g><path style="opacity:0.196" fill="#becbf4" d="M 956.5,283.5 C 959.447,284.849 962.114,286.683 964.5,289C 966.824,292.323 969.491,295.323 972.5,298C 973.448,298.483 974.448,298.649 975.5,298.5C 975.629,300.216 975.962,301.883 976.5,303.5C 969.377,297.221 962.711,290.554 956.5,283.5 Z"/></g>
<g><path style="opacity:0.259" fill="#a8baeb" d="M 803.5,289.5 C 801.878,293.074 800.545,296.741 799.5,300.5C 798.5,300.5 797.5,300.5 796.5,300.5C 795.352,304.787 793.685,308.787 791.5,312.5C 791.389,311.883 791.056,311.383 790.5,311C 793.588,305.254 796.588,299.421 799.5,293.5C 801.216,292.451 802.549,291.118 803.5,289.5 Z"/></g>
<g><path style="opacity:0.141" fill="#c3cef5" d="M 976.5,303.5 C 977.922,303.709 979.255,304.209 980.5,305C 984.5,309.333 988.5,313.667 992.5,318C 995.417,318.662 996.75,320.495 996.5,323.5C 989.5,317.167 982.833,310.5 976.5,303.5 Z"/></g>
<g><path style="opacity:0.435" fill="#bdc8f1" d="M 301.5,303.5 C 296.167,310.833 289.833,317.167 282.5,322.5C 282.369,321.761 282.536,321.094 283,320.5C 289.181,314.755 295.347,309.088 301.5,303.5 Z"/></g>
<g><path style="opacity:0.071" fill="#b0cbea" d="M 791.5,312.5 C 790.833,315.167 790.167,317.833 789.5,320.5C 788.833,321.167 788.167,321.833 787.5,322.5C 787.927,319.624 788.594,316.791 789.5,314C 789.836,312.97 790.503,312.47 791.5,312.5 Z"/></g>
<g><path style="opacity:0.102" fill="#a3bbe8" d="M 482.5,300.5 C 484.77,303.772 486.77,307.272 488.5,311C 490.136,315.698 491.47,320.865 492.5,326.5C 491.883,326.389 491.383,326.056 491,325.5C 488.258,317.105 485.424,308.772 482.5,300.5 Z"/></g>
<g><path style="opacity:0.62" fill="#6d84e3" d="M 789.5,320.5 C 789.605,324.258 788.605,327.592 786.5,330.5C 786.5,330.167 786.5,329.833 786.5,329.5C 786.674,327.139 787.007,324.806 787.5,322.5C 788.167,321.833 788.833,321.167 789.5,320.5 Z"/></g>
<g><path style="opacity:0.09" fill="#b6c2f0" d="M 281.5,323.5 C 277.979,328.517 273.979,333.184 269.5,337.5C 267.408,339.605 265.075,341.272 262.5,342.5C 262.369,341.761 262.536,341.094 263,340.5C 269.173,334.799 275.339,329.132 281.5,323.5 Z"/></g>
<g><path style="opacity:0.067" fill="#afd1d8" d="M 492.5,329.5 C 494.074,331.102 494.741,333.102 494.5,335.5C 493.833,335.5 493.167,335.5 492.5,335.5C 492.5,333.5 492.5,331.5 492.5,329.5 Z"/></g>
<g><path style="opacity:0.573" fill="#b2d0ea" d="M 786.5,329.5 C 786.5,329.833 786.5,330.167 786.5,330.5C 786.5,332.167 786.5,333.833 786.5,335.5C 785.833,335.5 785.167,335.5 784.5,335.5C 784.025,332.918 784.692,330.918 786.5,329.5 Z"/></g>
<g><path style="opacity:0.09" fill="#bfcbef" d="M 997.5,323.5 C 998.675,323.281 999.675,323.614 1000.5,324.5C 1003.82,328.318 1007.32,331.985 1011,335.5C 1011.79,336.745 1012.29,338.078 1012.5,339.5C 1006.46,335.13 1001.46,329.796 997.5,323.5 Z"/></g>
<g><path style="opacity:0.173" fill="#b7cff7" d="M 1012.5,339.5 C 1014.97,339.088 1016.31,340.088 1016.5,342.5C 1014.6,342.262 1013.26,341.262 1012.5,339.5 Z"/></g>
<g><path style="opacity:0.004" fill="#c8d2f5" d="M 1017.5,343.5 C 1020.16,345.475 1022.83,347.475 1025.5,349.5C 1026,350.5 1026.5,351.5 1027,352.5C 1029.83,354.833 1032.67,357.167 1035.5,359.5C 1036.13,360.417 1036.46,361.417 1036.5,362.5C 1034.94,362.267 1033.6,361.6 1032.5,360.5C 1026.76,355.433 1021.76,349.766 1017.5,343.5 Z"/></g>
<g><path style="opacity:0.529" fill="#3c5eba" d="M 492.5,335.5 C 493.167,335.5 493.833,335.5 494.5,335.5C 494.5,343.833 494.5,352.167 494.5,360.5C 493.833,360.5 493.167,360.5 492.5,360.5C 492.5,352.167 492.5,343.833 492.5,335.5 Z"/></g>
<g><path style="opacity:0.517" fill="#4a6ccc" d="M 784.5,335.5 C 785.167,335.5 785.833,335.5 786.5,335.5C 786.5,343.833 786.5,352.167 786.5,360.5C 785.833,360.5 785.167,360.5 784.5,360.5C 784.5,352.167 784.5,343.833 784.5,335.5 Z"/></g>
<g><path style="opacity:0.114" fill="#b3beef" d="M 261.5,343.5 C 255.898,350.275 250.065,356.942 244,363.5C 238.296,369.04 232.463,374.373 226.5,379.5C 230.413,373.251 235.413,367.917 241.5,363.5C 242.251,362.624 242.751,361.624 243,360.5C 249.173,354.799 255.339,349.132 261.5,343.5 Z"/></g>
<g><path style="opacity:0.129" fill="#c9d1f2" d="M 1037.5,363.5 C 1040.05,363.561 1041.55,364.894 1042,367.5C 1043.69,368.184 1045.19,369.184 1046.5,370.5C 1049.08,373.12 1051.08,376.12 1052.5,379.5C 1046.51,375.171 1041.51,369.837 1037.5,363.5 Z"/></g>
<g><path style="opacity:1" fill="#2855e6" d="M 1032.5,360.5 C 1033.6,361.6 1034.94,362.267 1036.5,362.5C 1036.5,363.167 1036.83,363.5 1037.5,363.5C 1041.51,369.837 1046.51,375.171 1052.5,379.5C 1052.83,379.5 1053.17,379.5 1053.5,379.5C 1053.98,381.784 1054.98,383.784 1056.5,385.5C 1055.5,385.5 1054.5,385.5 1053.5,385.5C 1053.58,384.07 1053.25,382.736 1052.5,381.5C 1050.26,380.526 1047.92,380.192 1045.5,380.5C 1045.5,379.5 1045.5,378.5 1045.5,377.5C 1044.17,377.5 1042.83,377.5 1041.5,377.5C 1041.5,378.5 1041.5,379.5 1041.5,380.5C 1040.5,380.5 1039.5,380.5 1038.5,380.5C 1038.79,378.723 1039.45,377.056 1040.5,375.5C 1040.52,373.627 1040.02,373.294 1039,374.5C 1038.67,372.167 1038.33,369.833 1038,367.5C 1036.95,365.893 1035.45,365.227 1033.5,365.5C 1033.37,363.784 1033.04,362.117 1032.5,360.5 Z"/></g>
<g><path style="opacity:0.129" fill="#b7ccf3" d="M 226.5,379.5 C 226.5,379.833 226.5,380.167 226.5,380.5C 225.395,381.6 224.062,382.267 222.5,382.5C 223.035,380.554 224.368,379.554 226.5,379.5 Z"/></g>
<g><path style="opacity:0.086" fill="#b4cdf6" d="M 784.5,360.5 C 785.167,360.5 785.833,360.5 786.5,360.5C 788.333,372.034 791.666,383.034 796.5,393.5C 794.331,391.13 792.331,388.463 790.5,385.5C 790.709,384.914 791.043,384.414 791.5,384C 790.484,383.481 789.818,382.647 789.5,381.5C 787.59,374.538 785.924,367.538 784.5,360.5 Z"/></g>
<g><path style="opacity:0.957" fill="#3b55c1" d="M 226.5,380.5 C 226.368,383.797 224.702,385.463 221.5,385.5C 221.833,384.833 222.167,384.167 222.5,383.5C 222.5,383.167 222.5,382.833 222.5,382.5C 224.062,382.267 225.395,381.6 226.5,380.5 Z"/></g>
<g><path style="opacity:0.396" fill="#b9c6f2" d="M 222.5,383.5 C 222.167,384.167 221.833,384.833 221.5,385.5C 215.445,391.56 209.111,397.226 202.5,402.5C 208.517,395.448 215.184,389.115 222.5,383.5 Z"/></g>
<g><path style="opacity:0.122" fill="#b7c3f1" d="M 1053.5,379.5 C 1055.91,379.694 1056.91,381.027 1056.5,383.5C 1057.98,383.238 1059.31,383.571 1060.5,384.5C 1063.8,388.8 1067.46,392.8 1071.5,396.5C 1072.13,397.417 1072.46,398.417 1072.5,399.5C 1067.17,394.833 1061.83,390.167 1056.5,385.5C 1054.98,383.784 1053.98,381.784 1053.5,379.5 Z"/></g>
<g><path style="opacity:0.137" fill="#afc0ed" d="M 492.5,360.5 C 493.167,360.5 493.833,360.5 494.5,360.5C 490.878,385.141 480.211,405.141 462.5,420.5C 462.729,418.567 463.562,416.9 465,415.5C 480.091,400.211 489.257,381.878 492.5,360.5 Z"/></g>
<g><path style="opacity:0.753" fill="#88a5f2" d="M 796.5,393.5 C 798.876,395.277 800.542,397.61 801.5,400.5C 801.167,400.5 800.833,400.5 800.5,400.5C 798.579,398.999 796.913,397.165 795.5,395C 796.056,394.617 796.389,394.117 796.5,393.5 Z"/></g>
<g><path style="opacity:0.275" fill="#8799e7" d="M 1073.5,399.5 C 1075.38,400.339 1076.72,401.672 1077.5,403.5C 1078.17,404.833 1078.83,406.167 1079.5,407.5C 1076.41,405.732 1074.41,403.065 1073.5,399.5 Z"/></g>
<g><path style="opacity:0.443" fill="#b3c3e7" d="M 800.5,400.5 C 800.833,400.5 801.167,400.5 801.5,400.5C 804.446,404.738 807.113,409.072 809.5,413.5C 806.427,409.76 803.094,406.093 799.5,402.5C 799.863,401.817 800.196,401.15 800.5,400.5 Z"/></g>
<g><path style="opacity:0.133" fill="#bfccf1" d="M 1077.5,403.5 C 1078.55,403.351 1079.55,403.517 1080.5,404C 1080.17,404.333 1079.83,404.667 1079.5,405C 1081.86,405.589 1082.86,407.089 1082.5,409.5C 1085.5,409.833 1087.17,411.5 1087.5,414.5C 1084.49,412.481 1081.82,410.148 1079.5,407.5C 1078.83,406.167 1078.17,404.833 1077.5,403.5 Z"/></g>
<g><path style="opacity:0.051" fill="#bcc9f3" d="M 202.5,403.5 C 197.833,409.5 192.5,414.833 186.5,419.5C 186.351,418.448 186.517,417.448 187,416.5C 192.059,411.933 197.226,407.599 202.5,403.5 Z"/></g>
<g><path style="opacity:0.075" fill="#c3d0f6" d="M 1087.5,414.5 C 1090.54,415.389 1093.21,416.889 1095.5,419C 1095.17,419.333 1094.83,419.667 1094.5,420C 1095.76,420.417 1096.42,421.25 1096.5,422.5C 1092.87,420.541 1089.87,417.874 1087.5,414.5 Z"/></g>
<g><path style="opacity:0.11" fill="#b8cbf1" d="M 186.5,419.5 C 185.738,421.262 184.404,422.262 182.5,422.5C 183.035,420.554 184.368,419.554 186.5,419.5 Z"/></g>
<g><path style="opacity:0.043" fill="#b4c7ea" d="M 812.5,415.5 C 819.597,421.719 826.264,428.386 832.5,435.5C 826.581,432.083 821.748,427.417 818,421.5C 814.905,420.575 813.072,418.575 812.5,415.5 Z"/></g>
<g><path style="opacity:0.435" fill="#b4c4f2" d="M 1096.5,423.5 C 1098.39,424.048 1100.06,425.048 1101.5,426.5C 1102.52,428.837 1104.18,430.504 1106.5,431.5C 1107.39,432.325 1107.72,433.325 1107.5,434.5C 1102.78,431.784 1099.12,428.118 1096.5,423.5 Z"/></g>
<g><path style="opacity:0.165" fill="#b2c7e9" d="M 460.5,420.5 C 460.579,421.93 460.246,423.264 459.5,424.5C 454.147,430.187 448.48,435.52 442.5,440.5C 442.729,438.567 443.562,436.9 445,435.5C 450.366,430.633 455.533,425.633 460.5,420.5 Z"/></g>
<g><path style="opacity:0.424" fill="#bdcaf4" d="M 182.5,423.5 C 176.444,430.558 169.778,436.891 162.5,442.5C 167.429,437.234 172.429,431.9 177.5,426.5C 178.94,425.048 180.606,424.048 182.5,423.5 Z"/></g>
<g><path style="opacity:0.247" fill="#bad2eb" d="M 832.5,435.5 C 834.893,436.353 836.226,438.019 836.5,440.5C 834.071,439.735 832.738,438.069 832.5,435.5 Z"/></g>
<g><path style="opacity:0.101" fill="#c3d0f6" d="M 1107.5,434.5 C 1112.03,436.313 1115.03,438.98 1116.5,442.5C 1114.94,442.267 1113.6,441.6 1112.5,440.5C 1110.59,438.709 1108.92,436.709 1107.5,434.5 Z"/></g>
<g><path style="opacity:1" fill="#4f64d5" d="M 1112.5,440.5 C 1113.6,441.6 1114.94,442.267 1116.5,442.5C 1117.55,443.222 1118.22,444.222 1118.5,445.5C 1118.83,446.167 1119.17,446.833 1119.5,447.5C 1117.72,446.28 1115.72,445.614 1113.5,445.5C 1113.37,443.784 1113.04,442.117 1112.5,440.5 Z"/></g>
<g><path style="opacity:0.024" fill="#b6c7e8" d="M 441.5,440.5 C 440.245,443.584 438.412,446.251 436,448.5C 435.184,449.823 434.017,450.489 432.5,450.5C 434.26,446.105 437.26,442.771 441.5,440.5 Z"/></g>
<g><path style="opacity:0.043" fill="#b9cfe9" d="M 838.5,440.5 C 841.588,443.578 844.255,446.911 846.5,450.5C 843.886,448.891 841.553,446.891 839.5,444.5C 838.754,443.264 838.421,441.93 838.5,440.5 Z"/></g>
<g><path style="opacity:0.176" fill="#becef1" d="M 1118.5,445.5 C 1119.58,445.539 1120.58,445.873 1121.5,446.5C 1124.83,449.833 1128.17,453.167 1131.5,456.5C 1132.39,457.325 1132.72,458.325 1132.5,459.5C 1128.16,455.494 1123.83,451.494 1119.5,447.5C 1119.17,446.833 1118.83,446.167 1118.5,445.5 Z"/></g>
<g><path style="opacity:0.224" fill="#b4c9f0" d="M 847.5,450.5 C 849.812,451.478 851.478,453.145 852.5,455.5C 849.5,455.167 847.833,453.5 847.5,450.5 Z"/></g>
<g><path style="opacity:0.31" fill="#b8c7ec" d="M 162.5,443.5 C 157.785,449.548 152.452,454.882 146.5,459.5C 146.281,458.325 146.614,457.325 147.5,456.5C 150.833,453.167 154.167,449.833 157.5,446.5C 158.94,445.048 160.606,444.048 162.5,443.5 Z"/></g>
<g><path style="opacity:0.643" fill="#99bcf4" d="M 852.5,455.5 C 855.297,455.967 856.631,457.633 856.5,460.5C 854.071,459.735 852.738,458.069 852.5,455.5 Z"/></g>
<g><path style="opacity:0.388" fill="#c2d3f4" d="M 145.5,459.5 C 145.5,461.5 144.5,462.5 142.5,462.5C 142.81,460.856 143.81,459.856 145.5,459.5 Z"/></g>
<g><path style="opacity:0.069" fill="#c3d3f9" d="M 1133.5,459.5 C 1135.19,459.856 1136.19,460.856 1136.5,462.5C 1135.5,462.5 1134.5,462.5 1133.5,462.5C 1133.5,461.5 1133.5,460.5 1133.5,459.5 Z"/></g>
<g><path style="opacity:0.114" fill="#d2dcf9" d="M 1136.5,463.5 C 1138.79,464.136 1140.46,465.469 1141.5,467.5C 1139.25,466.92 1137.58,465.587 1136.5,463.5 Z"/></g>
<g><path style="opacity:0.314" fill="#cad4f2" d="M 142.5,463.5 C 141.415,465.587 139.749,466.92 137.5,467.5C 138.539,465.469 140.205,464.136 142.5,463.5 Z"/></g>
<g><path style="opacity:0.153" fill="#b2c6e8" d="M 431.5,450.5 C 431.297,452.044 430.63,453.378 429.5,454.5C 427.122,457.378 424.288,459.711 421,461.5C 419.689,464.135 418.022,466.469 416,468.5C 411.609,472.73 407.109,476.73 402.5,480.5C 402.351,479.448 402.517,478.448 403,477.5C 412.385,468.279 421.885,459.279 431.5,450.5 Z"/></g>
<g><path style="opacity:0.075" fill="#d0dcf8" d="M 1141.5,468.5 C 1144.2,468.563 1145.2,469.563 1144.5,471.5C 1143.17,470.833 1142.17,469.833 1141.5,468.5 Z"/></g>
<g><path style="opacity:0.039" fill="#c0d3ec" d="M 857.5,460.5 C 863.133,464.827 868.133,469.827 872.5,475.5C 866.204,471.871 861.204,466.871 857.5,460.5 Z"/></g>
<g><path style="opacity:0.337" fill="#c8d4f3" d="M 137.5,468.5 C 136.167,470.167 134.833,471.833 133.5,473.5C 132.833,473.833 132.167,474.167 131.5,474.5C 132.455,471.545 134.455,469.545 137.5,468.5 Z"/></g>
<g><path style="opacity:0.118" fill="#b9cef7" d="M 1144.5,471.5 C 1145.5,471.5 1146.5,471.5 1147.5,471.5C 1147.5,472.5 1147.5,473.5 1147.5,474.5C 1145.86,474.19 1144.86,473.19 1144.5,471.5 Z"/></g>
<g><path style="opacity:0.647" fill="#8aabed" d="M 872.5,475.5 C 875.764,477.094 878.431,479.427 880.5,482.5C 879.833,482.5 879.167,482.5 878.5,482.5C 876.941,481.171 875.275,479.838 873.5,478.5C 872.614,477.675 872.281,476.675 872.5,475.5 Z"/></g>
<g><path style="opacity:0.078" fill="#c8d8f7" d="M 1154.5,480.5 C 1155.83,480.5 1156.5,481.167 1156.5,482.5C 1156.5,481.167 1155.83,480.5 1154.5,480.5 Z"/></g>
<g><path style="opacity:0.694" fill="#8492dc" d="M 133.5,473.5 C 128.5,479.833 122.833,485.5 116.5,490.5C 116.833,489.833 117.167,489.167 117.5,488.5C 117.5,487.5 117.5,486.5 117.5,485.5C 120.833,485.5 122.5,483.833 122.5,480.5C 125.833,480.5 127.5,478.833 127.5,475.5C 128.959,475.567 130.292,475.234 131.5,474.5C 132.167,474.167 132.833,473.833 133.5,473.5 Z"/></g>
<g><path style="opacity:0.992" fill="#7c8cdb" d="M 1147.5,474.5 C 1150.15,476.155 1152.49,478.155 1154.5,480.5C 1154.5,481.833 1155.17,482.5 1156.5,482.5C 1158.19,484.519 1159.86,486.519 1161.5,488.5C 1161.57,488.938 1161.4,489.272 1161,489.5C 1160.29,488.027 1159.12,487.36 1157.5,487.5C 1157.5,486.5 1157.5,485.5 1157.5,484.5C 1156.02,484.762 1154.69,484.429 1153.5,483.5C 1151.45,480.419 1149.45,477.419 1147.5,474.5 Z"/></g>
<g><path style="opacity:0.004" fill="#b8cfee" d="M 878.5,482.5 C 879.167,482.5 879.833,482.5 880.5,482.5C 883.003,484.861 885.003,487.528 886.5,490.5C 883.393,488.297 880.726,485.63 878.5,482.5 Z"/></g>
<g><path style="opacity:0.012" fill="#b3c5e6" d="M 401.5,480.5 C 399.907,483.924 397.74,486.924 395,489.5C 393.259,490.758 391.426,491.758 389.5,492.5C 392.521,487.479 396.521,483.479 401.5,480.5 Z"/></g>
<g><path style="opacity:0.753" fill="#8ca1e6" d="M 1162.5,489.5 C 1163.5,489.833 1164.17,490.5 1164.5,491.5C 1164.19,492.738 1163.69,492.738 1163,491.5C 1162.54,490.906 1162.37,490.239 1162.5,489.5 Z"/></g>
<g><path style="opacity:0.086" fill="#ccd4f6" d="M 117.5,488.5 C 117.167,489.167 116.833,489.833 116.5,490.5C 114.833,491.833 113.167,493.167 111.5,494.5C 112.455,491.545 114.455,489.545 117.5,488.5 Z"/></g>
<g><path style="opacity:0.047" fill="#b8cef6" d="M 1165.5,491.5 C 1167.05,491.821 1167.71,492.821 1167.5,494.5C 1165.95,494.179 1165.29,493.179 1165.5,491.5 Z"/></g>
<g><path style="opacity:0.161" fill="#b0c7ef" d="M 887.5,490.5 C 889.017,490.511 890.184,491.177 891,492.5C 891.997,494.323 893.164,495.99 894.5,497.5C 891.665,496.931 889.999,495.264 889.5,492.5C 887.007,492.869 886.34,492.203 887.5,490.5 Z"/></g>
<g><path style="opacity:0.031" fill="#b2c7e8" d="M 389.5,492.5 C 389.719,493.675 389.386,494.675 388.5,495.5C 386.217,496.971 384.217,498.638 382.5,500.5C 383.393,496.605 385.726,493.938 389.5,492.5 Z"/></g>
<g><path style="opacity:0.043" fill="#b0beef" d="M 111.5,494.5 C 110.478,496.855 108.812,498.522 106.5,499.5C 106.5,498.5 106.5,497.5 106.5,496.5C 108.322,496.169 109.989,495.502 111.5,494.5 Z"/></g>
<g><path style="opacity:0.067" fill="#bed1f6" d="M 1168.5,494.5 C 1170.13,495.581 1171.47,496.915 1172.5,498.5C 1169.82,498.475 1168.49,497.142 1168.5,494.5 Z"/></g>
<g><path style="opacity:0.373" fill="#c3d3f3" d="M 105.5,499.5 C 105.5,501.5 104.5,502.5 102.5,502.5C 102.81,500.856 103.81,499.856 105.5,499.5 Z"/></g>
<g><path style="opacity:0.063" fill="#c4d3f9" d="M 1173.5,499.5 C 1175.19,499.856 1176.19,500.856 1176.5,502.5C 1175.5,502.5 1174.5,502.5 1173.5,502.5C 1173.5,501.5 1173.5,500.5 1173.5,499.5 Z"/></g>
<g><path style="opacity:0.318" fill="#c4d2f4" d="M 102.5,502.5 C 102.262,504.404 101.262,505.738 99.5,506.5C 99.7376,504.596 100.738,503.262 102.5,502.5 Z"/></g>
<g><path style="opacity:0.098" fill="#d0dbf7" d="M 1176.5,502.5 C 1178.5,503.833 1180.17,505.5 1181.5,507.5C 1178.83,506.833 1177.17,505.167 1176.5,502.5 Z"/></g>
<g><path style="opacity:0.239" fill="#a4bce8" d="M 894.5,497.5 C 898.861,499.861 902.194,503.194 904.5,507.5C 901.152,506.497 898.819,504.33 897.5,501C 896.552,500.517 895.552,500.351 894.5,500.5C 894.5,499.5 894.5,498.5 894.5,497.5 Z"/></g>
<g><path style="opacity:0.133" fill="#bcd1ec" d="M 379.5,502.5 C 378.313,504.905 376.813,507.239 375,509.5C 372.5,510.667 370.667,512.5 369.5,515C 367.922,516.094 366.255,516.928 364.5,517.5C 368.854,511.812 373.854,506.812 379.5,502.5 Z"/></g>
<g><path style="opacity:0.161" fill="#b5cdeb" d="M 904.5,507.5 C 906.812,508.478 908.478,510.145 909.5,512.5C 907.833,511.833 906.167,511.167 904.5,510.5C 904.5,509.5 904.5,508.5 904.5,507.5 Z"/></g>
<g><path style="opacity:0.071" fill="#d7e1f8" d="M 1181.5,507.5 C 1183.45,508.035 1184.45,509.368 1184.5,511.5C 1182.74,510.738 1181.74,509.404 1181.5,507.5 Z"/></g>
<g><path style="opacity:0.341" fill="#cad5f7" d="M 99.5,506.5 C 97.1667,509.5 94.5,512.167 91.5,514.5C 93.1667,510.833 95.8333,508.167 99.5,506.5 Z"/></g>
<g><path style="opacity:0.059" fill="#c6d8fe" d="M 1184.5,511.5 C 1186.18,511.285 1187.18,511.952 1187.5,513.5C 1185.97,513.573 1184.97,512.906 1184.5,511.5 Z"/></g>
<g><path style="opacity:0.094" fill="#b7baf0" d="M 91.5,514.5 C 91.5,515.5 91.5,516.5 91.5,517.5C 89.4862,517.392 87.8195,518.058 86.5,519.5C 86.5,518.5 86.5,517.5 86.5,516.5C 88.3224,516.169 89.9891,515.502 91.5,514.5 Z"/></g>
<g><path style="opacity:0.129" fill="#b9c5e5" d="M 364.5,517.5 C 364.715,519.179 364.048,520.179 362.5,520.5C 362.285,518.821 362.952,517.821 364.5,517.5 Z"/></g>
<g><path style="opacity:0.365" fill="#c0d0f5" d="M 86.5,519.5 C 85.7377,521.262 84.4044,522.262 82.5,522.5C 83.0347,520.554 84.368,519.554 86.5,519.5 Z"/></g>
<g><path style="opacity:0.065" fill="#c2cff5" d="M 1188.5,515.5 C 1189.68,515.281 1190.68,515.614 1191.5,516.5C 1193.24,518.563 1194.91,520.563 1196.5,522.5C 1194.4,521.588 1192.4,520.421 1190.5,519C 1189.18,518.184 1188.51,517.017 1188.5,515.5 Z"/></g>
<g><path style="opacity:0.098" fill="#d1dbf9" d="M 1196.5,522.5 C 1198.5,523.833 1200.17,525.5 1201.5,527.5C 1198.83,526.833 1197.17,525.167 1196.5,522.5 Z"/></g>
<g><path style="opacity:0.012" fill="#b9cbe8" d="M 361.5,520.5 C 359.86,523.876 357.694,526.876 355,529.5C 353.259,530.758 351.426,531.758 349.5,532.5C 353.316,528.239 357.149,523.906 361,519.5C 361.399,519.728 361.565,520.062 361.5,520.5 Z"/></g>
<g><path style="opacity:0.071" fill="#d2dff8" d="M 1201.5,527.5 C 1203.45,528.035 1204.45,529.368 1204.5,531.5C 1202.74,530.738 1201.74,529.404 1201.5,527.5 Z"/></g>
<g><path style="opacity:0.035" fill="#b0c8eb" d="M 909.5,512.5 C 918.47,520.635 927.303,528.968 936,537.5C 936.483,538.448 936.649,539.448 936.5,540.5C 934.952,540.179 934.285,539.179 934.5,537.5C 932.567,537.271 930.9,536.438 929.5,535C 925.271,530.549 921.271,525.883 917.5,521C 916.552,520.517 915.552,520.351 914.5,520.5C 914.5,519.5 914.5,518.5 914.5,517.5C 912.833,516.833 911.167,516.167 909.5,515.5C 909.5,514.5 909.5,513.5 909.5,512.5 Z"/></g>
<g><path style="opacity:0.318" fill="#c1cdef" d="M 82.5,522.5 C 78.5627,527.776 74.2294,532.776 69.5,537.5C 69.1667,537.5 68.8333,537.5 68.5,537.5C 72.5108,531.825 77.1775,526.825 82.5,522.5 Z"/></g>
<g><path style="opacity:0.114" fill="#c1dafd" d="M 1204.5,531.5 C 1206.18,531.285 1207.18,531.952 1207.5,533.5C 1206.83,533.5 1206.17,533.5 1205.5,533.5C 1205.17,532.833 1204.83,532.167 1204.5,531.5 Z"/></g>
<g><path style="opacity:0.031" fill="#b1c7e9" d="M 349.5,532.5 C 349.719,533.675 349.386,534.675 348.5,535.5C 346.217,536.971 344.217,538.638 342.5,540.5C 342.351,539.448 342.517,538.448 343,537.5C 345.061,535.594 347.228,533.927 349.5,532.5 Z"/></g>
<g><path style="opacity:1" fill="#4e6ae4" d="M 1205.5,533.5 C 1206.17,533.5 1206.83,533.5 1207.5,533.5C 1207.5,534.167 1207.83,534.5 1208.5,534.5C 1208.49,537.142 1209.82,538.475 1212.5,538.5C 1212.5,539.167 1212.83,539.5 1213.5,539.5C 1213.5,540.167 1213.5,540.833 1213.5,541.5C 1209.16,540.492 1206.49,537.826 1205.5,533.5 Z"/></g>
<g><path style="opacity:0.047" fill="#c3d4f7" d="M 1208.5,534.5 C 1210.13,535.581 1211.47,536.915 1212.5,538.5C 1209.82,538.475 1208.49,537.142 1208.5,534.5 Z"/></g>
<g><path style="opacity:0.063" fill="#cadafb" d="M 1213.5,539.5 C 1215.19,539.856 1216.19,540.856 1216.5,542.5C 1215.21,542.737 1214.21,542.404 1213.5,541.5C 1213.5,540.833 1213.5,540.167 1213.5,539.5 Z"/></g>
<g><path style="opacity:0.729" fill="#475fbd" d="M 68.5,537.5 C 68.8333,537.5 69.1667,537.5 69.5,537.5C 68.2943,539.483 66.961,541.483 65.5,543.5C 64.675,544.386 63.675,544.719 62.5,544.5C 62.5,543.833 62.5,543.167 62.5,542.5C 64.5,540.833 66.5,539.167 68.5,537.5 Z"/></g>
<g><path style="opacity:0.027" fill="#b5c9ea" d="M 339.5,542.5 C 338.313,544.905 336.813,547.239 335,549.5C 331.766,551.036 329.266,553.369 327.5,556.5C 326.675,557.386 325.675,557.719 324.5,557.5C 324.715,559.179 324.048,560.179 322.5,560.5C 322.351,559.448 322.517,558.448 323,557.5C 328.39,552.271 333.89,547.271 339.5,542.5 Z"/></g>
<g><path style="opacity:0.212" fill="#aac1e8" d="M 944.5,547.5 C 940.98,546.396 938.647,544.063 937.5,540.5C 937.435,540.062 937.601,539.728 938,539.5C 940.415,542.014 942.581,544.681 944.5,547.5 Z"/></g>
<g><path style="opacity:0.239" fill="#d4ddf7" d="M 62.5,542.5 C 62.5,543.167 62.5,543.833 62.5,544.5C 61.1667,545.167 60.1667,546.167 59.5,547.5C 59.1667,547.5 58.8333,547.5 58.5,547.5C 59.0798,545.251 60.4131,543.585 62.5,542.5 Z"/></g>
<g><path style="opacity:0.859" fill="#819ae9" d="M 1216.5,542.5 C 1218.46,544.802 1220.46,547.135 1222.5,549.5C 1218.71,548.709 1216.71,546.376 1216.5,542.5 Z"/></g>
<g><path style="opacity:0.392" fill="#a8c6ee" d="M 944.5,547.5 C 946.048,547.821 946.715,548.821 946.5,550.5C 944.952,550.179 944.285,549.179 944.5,547.5 Z"/></g>
<g><path style="opacity:0.208" fill="#c2d7f9" d="M 947.5,550.5 C 948.5,550.833 949.167,551.5 949.5,552.5C 947.007,552.869 946.34,552.203 947.5,550.5 Z"/></g>
<g><path style="opacity:0.396" fill="#a8b6ea" d="M 58.5,547.5 C 58.8333,547.5 59.1667,547.5 59.5,547.5C 55.8333,550.833 52.1667,554.167 48.5,557.5C 50.8824,553.118 54.2157,549.784 58.5,547.5 Z"/></g>
<g><path style="opacity:0.094" fill="#889fe8" d="M 1222.5,549.5 C 1224.91,550.517 1226.58,552.184 1227.5,554.5C 1224.67,553.931 1223,552.264 1222.5,549.5 Z"/></g>
<g><path style="opacity:0.361" fill="#a9c3eb" d="M 949.5,552.5 C 953.274,553.938 955.607,556.605 956.5,560.5C 954.952,560.179 954.285,559.179 954.5,557.5C 951.5,557.167 949.833,555.5 949.5,552.5 Z"/></g>
<g><path style="opacity:0.682" fill="#9bb4e3" d="M 1227.5,554.5 C 1228.83,555.167 1229.83,556.167 1230.5,557.5C 1228.5,557.5 1227.5,556.5 1227.5,554.5 Z"/></g>
<g><path style="opacity:0.102" fill="#becef8" d="M 1232.5,559.5 C 1233.77,560.09 1235.1,560.59 1236.5,561C 1235.94,561.383 1235.61,561.883 1235.5,562.5C 1233.5,562.5 1232.5,561.5 1232.5,559.5 Z"/></g>
<g><path style="opacity:0.753" fill="#475db3" d="M 46.5,559.5 C 46.8034,562.588 45.4701,564.254 42.5,564.5C 42.5,563.833 42.5,563.167 42.5,562.5C 44.0301,561.789 45.3634,560.789 46.5,559.5 Z"/></g>
<g><path style="opacity:0.09" fill="#ddeafb" d="M 1236.5,562.5 C 1237.83,562.5 1238.5,563.167 1238.5,564.5C 1237.83,564.5 1237.17,564.5 1236.5,564.5C 1236.5,563.833 1236.5,563.167 1236.5,562.5 Z"/></g>
<g><path style="opacity:0.204" fill="#b5ceef" d="M 958.5,561.5 C 961.117,562.784 963.117,564.784 964.5,567.5C 961.19,566.839 959.19,564.839 958.5,561.5 Z"/></g>
<g><path style="opacity:0.902" fill="#889ef3" d="M 1236.5,564.5 C 1237.17,564.5 1237.83,564.5 1238.5,564.5C 1240.04,565.667 1241.37,567 1242.5,568.5C 1239.8,568.787 1237.8,567.454 1236.5,564.5 Z"/></g>
<g><path style="opacity:0.212" fill="#b8cdef" d="M 964.5,567.5 C 966.812,568.478 968.478,570.145 969.5,572.5C 966.665,571.931 964.999,570.264 964.5,567.5 Z"/></g>
<g><path style="opacity:0.588" fill="#a4b7e0" d="M 42.5,562.5 C 42.5,563.167 42.5,563.833 42.5,564.5C 39.4633,568.537 35.7966,571.871 31.5,574.5C 31.281,573.325 31.6143,572.325 32.5,571.5C 34.6045,570.102 36.6045,568.602 38.5,567C 38.1667,566.667 37.8333,566.333 37.5,566C 39.3231,565.003 40.9897,563.836 42.5,562.5 Z"/></g>
<g><path style="opacity:0.2" fill="#c2d7e7" d="M 1242.5,569.5 C 1244.79,570.136 1246.46,571.469 1247.5,573.5C 1246.88,573.611 1246.38,573.944 1246,574.5C 1244.35,573.115 1243.18,571.449 1242.5,569.5 Z"/></g>
<g><path style="opacity:0.027" fill="#b1c7eb" d="M 320.5,561.5 C 319.125,564.451 317.292,567.118 315,569.5C 311.766,571.036 309.266,573.369 307.5,576.5C 306.675,577.386 305.675,577.719 304.5,577.5C 304.715,579.179 304.048,580.179 302.5,580.5C 302.351,579.448 302.517,578.448 303,577.5C 308.75,571.91 314.583,566.577 320.5,561.5 Z"/></g>
<g><path style="opacity:0.125" fill="#b1ccf1" d="M 969.5,572.5 C 971.911,573.517 973.578,575.184 974.5,577.5C 971.5,577.167 969.833,575.5 969.5,572.5 Z"/></g>
<g><path style="opacity:0.459" fill="#9eb8d9" d="M 1247.5,574.5 C 1249.55,575.882 1251.22,577.548 1252.5,579.5C 1249.5,579.167 1247.83,577.5 1247.5,574.5 Z"/></g>
<g><path style="opacity:0.482" fill="#8da5d8" d="M 31.5,574.5 C 31.2785,576.664 30.2785,578.33 28.5,579.5C 28.5,578.833 28.5,578.167 28.5,577.5C 29.1667,576.167 30.1667,575.167 31.5,574.5 Z"/></g>
<g><path style="opacity:0.133" fill="#9bbff6" d="M 974.5,577.5 C 976.048,577.821 976.715,578.821 976.5,580.5C 974.952,580.179 974.285,579.179 974.5,577.5 Z"/></g>
<g><path style="opacity:0.784" fill="#a4c1e9" d="M 28.5,577.5 C 28.5,578.167 28.5,578.833 28.5,579.5C 26.2945,583.268 23.6278,586.602 20.5,589.5C 20.5614,587.408 21.5614,585.908 23.5,585C 23.6763,581.883 25.3429,579.383 28.5,577.5 Z"/></g>
<g><path style="opacity:0.008" fill="#b3cdeb" d="M 978.5,581.5 C 981.117,582.784 983.117,584.784 984.5,587.5C 981.199,586.866 979.199,584.866 978.5,581.5 Z"/></g>
<g><path style="opacity:0.231" fill="#abc9f4" d="M 1252.5,580.5 C 1254.13,581.207 1255.47,582.373 1256.5,584C 1256.17,584.333 1255.83,584.667 1255.5,585C 1257.93,586.484 1259.27,588.651 1259.5,591.5C 1255.99,588.642 1253.66,584.976 1252.5,580.5 Z"/></g>
<g><path style="opacity:0.016" fill="#b3c7ea" d="M 300.5,581.5 C 299.91,582.766 299.41,584.099 299,585.5C 296.221,588.441 293.054,590.774 289.5,592.5C 289.167,595.5 287.5,597.167 284.5,597.5C 284.715,599.179 284.048,600.179 282.5,600.5C 282.351,599.448 282.517,598.448 283,597.5C 288.75,591.91 294.583,586.577 300.5,581.5 Z"/></g>
<g><path style="opacity:0.039" fill="#bbd5f0" d="M 20.5,589.5 C 20.3056,593.248 18.639,595.915 15.5,597.5C 16.1137,594.083 17.7804,591.416 20.5,589.5 Z"/></g>
<g><path style="opacity:0.035" fill="#c0d6ec" d="M 984.5,587.5 C 988.146,590.479 991.479,593.812 994.5,597.5C 993.448,597.649 992.448,597.483 991.5,597C 990.255,594.343 988.255,592.51 985.5,591.5C 984.571,590.311 984.238,588.978 984.5,587.5 Z"/></g>
<g><path style="opacity:0.337" fill="#b9d5f1" d="M 1259.5,591.5 C 1262.26,593.379 1263.92,596.046 1264.5,599.5C 1263.83,599.5 1263.17,599.5 1262.5,599.5C 1260.96,597.072 1259.96,594.406 1259.5,591.5 Z"/></g>
<g><path style="opacity:0.733" fill="#96baf0" d="M 994.5,597.5 C 996.048,597.821 996.715,598.821 996.5,600.5C 994.952,600.179 994.285,599.179 994.5,597.5 Z"/></g>
<g><path style="opacity:0.178" fill="#97b1e3" d="M 15.5,598.5 C 13.9599,605.535 12.2932,612.535 10.5,619.5C 9.11101,624.269 8.44435,629.269 8.5,634.5C 8.16667,634.5 7.83333,634.5 7.5,634.5C 7.39958,621.716 10.0662,609.716 15.5,598.5 Z"/></g>
<g><path style="opacity:0.686" fill="#698ce6" d="M 1262.5,599.5 C 1263.17,599.5 1263.83,599.5 1264.5,599.5C 1264.5,600.5 1264.5,601.5 1264.5,602.5C 1264.5,603.167 1264.5,603.833 1264.5,604.5C 1263.07,603.22 1262.4,601.553 1262.5,599.5 Z"/></g>
<g><path style="opacity:0.02" fill="#aec2e8" d="M 281.5,600.5 C 280.928,602.255 280.094,603.922 279,605.5C 274.879,608.821 271.046,612.487 267.5,616.5C 266.675,617.386 265.675,617.719 264.5,617.5C 264.737,618.791 264.404,619.791 263.5,620.5C 263.238,619.022 263.571,617.689 264.5,616.5C 270.009,610.791 275.509,605.124 281,599.5C 281.399,599.728 281.565,600.062 281.5,600.5 Z"/></g>
<g><path style="opacity:0.031" fill="#bacfec" d="M 998.5,602.5 C 1004.75,606.418 1010.09,611.418 1014.5,617.5C 1011.58,616.558 1008.91,615.224 1006.5,613.5C 1004.63,609.183 1001.63,605.683 997.5,603C 997.728,602.601 998.062,602.435 998.5,602.5 Z"/></g>
<g><path style="opacity:0.314" fill="#abc4ee" d="M 1264.5,602.5 C 1267.68,606.502 1269.35,611.169 1269.5,616.5C 1267.27,612.705 1265.6,608.705 1264.5,604.5C 1264.5,603.833 1264.5,603.167 1264.5,602.5 Z"/></g>
<g><path style="opacity:0.733" fill="#94b9f2" d="M 1014.5,617.5 C 1016.05,617.821 1016.71,618.821 1016.5,620.5C 1014.95,620.179 1014.29,619.179 1014.5,617.5 Z"/></g>
<g><path style="opacity:0.137" fill="#afb5d6" d="M 1019.5,622.5 C 1018.17,622.5 1017.5,621.833 1017.5,620.5C 1017.43,620.062 1017.6,619.728 1018,619.5C 1018.51,620.527 1019.01,621.527 1019.5,622.5 Z"/></g>
<g><path style="opacity:0.8" fill="#7fa6e7" d="M 1269.5,618.5 C 1271.18,623.568 1271.84,628.902 1271.5,634.5C 1271.17,634.5 1270.83,634.5 1270.5,634.5C 1270.17,629.167 1269.83,623.833 1269.5,618.5 Z"/></g>
<g><path style="opacity:0.161" fill="#afc5e8" d="M 261.5,620.5 C 260.928,622.255 260.094,623.922 259,625.5C 253.962,630.04 249.128,634.707 244.5,639.5C 249.128,644.293 253.962,648.96 259,653.5C 260.438,654.9 261.271,656.567 261.5,658.5C 262.5,658.5 263.5,658.5 264.5,658.5C 264.5,659.5 264.5,660.5 264.5,661.5C 256.27,655.015 248.936,647.681 242.5,639.5C 248.453,632.711 254.62,626.044 261,619.5C 261.399,619.728 261.565,620.062 261.5,620.5 Z"/></g>
<g><path style="opacity:0.861" fill="#4d6ecd" d="M 1270.5,634.5 C 1270.83,634.5 1271.17,634.5 1271.5,634.5C 1271.5,639.5 1271.5,644.5 1271.5,649.5C 1270.83,650.167 1270.17,650.833 1269.5,651.5C 1270.29,645.87 1270.63,640.203 1270.5,634.5 Z"/></g>
<g><path style="opacity:1" fill="#0b3ce0" d="M 10.5,619.5 C 11.5,619.5 12.5,619.5 13.5,619.5C 13.7112,626.251 13.0445,632.917 11.5,639.5C 13.0445,646.083 13.7112,652.749 13.5,659.5C 12.5,659.5 11.5,659.5 10.5,659.5C 9.25652,651.217 8.58986,642.884 8.5,634.5C 8.44435,629.269 9.11101,624.269 10.5,619.5 Z"/></g>
<g><path style="opacity:0.137" fill="#b6cdeb" d="M 1019.5,622.5 C 1024.13,626.79 1028.79,631.123 1033.5,635.5C 1034.61,636.611 1035.28,637.945 1035.5,639.5C 1030.89,645.287 1026.05,650.954 1021,656.5C 1019.67,657.167 1018.67,658.167 1018,659.5C 1017.6,659.272 1017.43,658.938 1017.5,658.5C 1018.38,656.916 1019.22,655.249 1020,653.5C 1025.01,648.988 1029.85,644.321 1034.5,639.5C 1029.85,634.679 1025.01,630.012 1020,625.5C 1019.52,624.552 1019.35,623.552 1019.5,622.5 Z"/></g>
<g><path style="opacity:0.733" fill="#94b9f2" d="M 1016.5,658.5 C 1016.71,660.179 1016.05,661.179 1014.5,661.5C 1014.29,659.821 1014.95,658.821 1016.5,658.5 Z"/></g>
<g><path style="opacity:0.545" fill="#607dd0" d="M 7.5,634.5 C 7.83333,634.5 8.16667,634.5 8.5,634.5C 8.58986,642.884 9.25652,651.217 10.5,659.5C 11.038,661.117 11.3713,662.784 11.5,664.5C 10.8333,664.5 10.1667,664.5 9.5,664.5C 7.78958,654.589 7.12292,644.589 7.5,634.5 Z"/></g>
<g><path style="opacity:0.165" fill="#b6cbea" d="M 264.5,661.5 C 265.675,661.281 266.675,661.614 267.5,662.5C 272.408,667.351 277.075,672.351 281.5,677.5C 282.325,678.386 283.325,678.719 284.5,678.5C 284.5,679.5 284.5,680.5 284.5,681.5C 287.5,681.833 289.167,683.5 289.5,686.5C 280.586,678.851 272.252,670.517 264.5,661.5 Z"/></g>
<g><path style="opacity:0.076" fill="#9db6eb" d="M 1271.5,649.5 C 1270.98,657.138 1269.64,664.638 1267.5,672C 1267.16,673.03 1266.5,673.53 1265.5,673.5C 1267.27,666.234 1268.6,658.901 1269.5,651.5C 1270.17,650.833 1270.83,650.167 1271.5,649.5 Z"/></g>
<g><path style="opacity:0.031" fill="#b6cfef" d="M 9.5,664.5 C 10.1667,664.5 10.8333,664.5 11.5,664.5C 12.6352,669.901 13.9685,675.235 15.5,680.5C 12.4413,675.689 10.4413,670.356 9.5,664.5 Z"/></g>
<g><path style="opacity:0.235" fill="#b6ccec" d="M 1014.5,661.5 C 1009.42,667.242 1004.09,672.575 998.5,677.5C 998.389,676.883 998.056,676.383 997.5,676C 1001.63,673.317 1004.63,669.817 1006.5,665.5C 1008.91,663.776 1011.58,662.442 1014.5,661.5 Z"/></g>
<g><path style="opacity:0.206" fill="#c3d7fa" d="M 1265.5,674.5 C 1266.65,676.909 1265.99,678.909 1263.5,680.5C 1263.26,678.102 1263.93,676.102 1265.5,674.5 Z"/></g>
<g><path style="opacity:0.988" fill="#7792e5" d="M 998.5,677.5 C 998.167,679.833 996.833,681.167 994.5,681.5C 994.5,680.5 994.5,679.5 994.5,678.5C 995.959,678.567 997.292,678.234 998.5,677.5 Z"/></g>
<g><path style="opacity:0.025" fill="#c8e8f4" d="M 15.5,681.5 C 17.1436,681.81 18.1436,682.81 18.5,684.5C 18.5,685.167 18.5,685.833 18.5,686.5C 16.5923,685.514 15.5923,683.848 15.5,681.5 Z"/></g>
<g><path style="opacity:0.067" fill="#c1ddf1" d="M 1263.5,681.5 C 1263.37,684.366 1262.03,686.366 1259.5,687.5C 1259.37,684.392 1260.71,682.392 1263.5,681.5 Z"/></g>
<g><path style="opacity:0.161" fill="#bdd4ed" d="M 994.5,681.5 C 991.452,685.215 988.119,688.548 984.5,691.5C 984.281,690.325 984.614,689.325 985.5,688.5C 987.833,686.833 989.833,684.833 991.5,682.5C 992.325,681.614 993.325,681.281 994.5,681.5 Z"/></g>
<g><path style="opacity:0.016" fill="#b8ceed" d="M 289.5,686.5 C 292.906,688.068 295.906,690.235 298.5,693C 299.267,694.47 299.933,695.97 300.5,697.5C 299.504,697.586 298.671,697.252 298,696.5C 295.302,692.975 292.469,689.642 289.5,686.5 Z"/></g>
<g><path style="opacity:0.129" fill="#9ab2e7" d="M 18.5,684.5 C 23.0012,691.747 28.0012,698.747 33.5,705.5C 37.1986,707.865 40.1986,710.865 42.5,714.5C 42.5,715.167 42.5,715.833 42.5,716.5C 32.3678,707.756 24.3678,697.756 18.5,686.5C 18.5,685.833 18.5,685.167 18.5,684.5 Z"/></g>
<g><path style="opacity:0.063" fill="#a1cbf6" d="M 1259.5,687.5 C 1259.37,690.366 1258.03,692.366 1255.5,693.5C 1255.87,690.733 1257.2,688.733 1259.5,687.5 Z"/></g>
<g><path style="opacity:0.212" fill="#abc7e8" d="M 984.5,691.5 C 982.923,694.05 980.923,696.05 978.5,697.5C 979.199,694.134 981.199,692.134 984.5,691.5 Z"/></g>
<g><path style="opacity:0.478" fill="#9ab1ea" d="M 1255.5,694.5 C 1255.94,694.435 1256.27,694.601 1256.5,695C 1252.33,700.171 1247.83,705.004 1243,709.5C 1242.52,710.448 1242.35,711.448 1242.5,712.5C 1240.62,712.229 1239.29,712.896 1238.5,714.5C 1237.83,714.5 1237.17,714.5 1236.5,714.5C 1238.79,711.548 1241.45,708.882 1244.5,706.5C 1247.09,703.364 1249.42,700.031 1251.5,696.5C 1252.52,695.147 1253.86,694.48 1255.5,694.5 Z"/></g>
<g><path style="opacity:0.965" fill="#779aed" d="M 978.5,697.5 C 977.581,700.089 975.914,702.089 973.5,703.5C 973.5,702.833 973.5,702.167 973.5,701.5C 974.404,700.791 974.737,699.791 974.5,698.5C 975.959,698.567 977.292,698.234 978.5,697.5 Z"/></g>
<g><path style="opacity:0.027" fill="#aac0eb" d="M 300.5,697.5 C 301.708,698.234 303.041,698.567 304.5,698.5C 304.5,699.5 304.5,700.5 304.5,701.5C 307.5,701.833 309.167,703.5 309.5,706.5C 305.757,704.151 302.757,701.151 300.5,697.5 Z"/></g>
<g><path style="opacity:0.216" fill="#c4dbf0" d="M 973.5,701.5 C 973.5,702.167 973.5,702.833 973.5,703.5C 972.167,704.5 970.833,705.5 969.5,706.5C 969.738,703.931 971.071,702.265 973.5,701.5 Z"/></g>
<g><path style="opacity:0.165" fill="#b6cce9" d="M 969.5,706.5 C 966.698,710.055 963.698,713.388 960.5,716.5C 960.167,716.5 959.833,716.5 959.5,716.5C 959.281,715.325 959.614,714.325 960.5,713.5C 962.942,710.385 965.942,708.052 969.5,706.5 Z"/></g>
<g><path style="opacity:0.024" fill="#afc3eb" d="M 309.5,706.5 C 311.255,707.072 312.922,707.906 314.5,709C 316.854,711.649 318.854,714.482 320.5,717.5C 316.243,714.516 312.576,710.849 309.5,706.5 Z"/></g>
<g><path style="opacity:0.043" fill="#d2e1f7" d="M 1236.5,714.5 C 1237.17,714.5 1237.83,714.5 1238.5,714.5C 1238.5,715.833 1237.83,716.5 1236.5,716.5C 1236.5,715.833 1236.5,715.167 1236.5,714.5 Z"/></g>
<g><path style="opacity:0.988" fill="#3751af" d="M 42.5,714.5 C 44.6188,714.468 45.9522,715.468 46.5,717.5C 45.8333,717.5 45.1667,717.5 44.5,717.5C 44.1583,716.662 43.4916,716.328 42.5,716.5C 42.5,715.833 42.5,715.167 42.5,714.5 Z"/></g>
<g><path style="opacity:0.416" fill="#a8bff5" d="M 44.5,717.5 C 45.1667,717.5 45.8333,717.5 46.5,717.5C 46.5,718.167 46.5,718.833 46.5,719.5C 45.1667,719.5 44.5,718.833 44.5,717.5 Z"/></g>
<g><path style="opacity:0.902" fill="#738be3" d="M 959.5,716.5 C 959.833,716.5 960.167,716.5 960.5,716.5C 959.288,719.107 957.288,720.774 954.5,721.5C 954.5,720.5 954.5,719.5 954.5,718.5C 956.514,718.608 958.18,717.942 959.5,716.5 Z"/></g>
<g><path style="opacity:0.106" fill="#bac5f0" d="M 1235.5,716.5 C 1235.61,717.117 1235.94,717.617 1236.5,718C 1234.22,720.456 1231.55,722.29 1228.5,723.5C 1228.91,725.973 1227.91,727.306 1225.5,727.5C 1225.5,726.833 1225.5,726.167 1225.5,725.5C 1227.94,721.535 1231.28,718.535 1235.5,716.5 Z"/></g>
<g><path style="opacity:0.8" fill="#798fdc" d="M 52.5,724.5 C 51.8333,724.5 51.1667,724.5 50.5,724.5C 49.8333,723.167 48.8333,722.167 47.5,721.5C 47.369,720.761 47.5357,720.094 48,719.5C 50.0494,720.714 51.5494,722.38 52.5,724.5 Z"/></g>
<g><path style="opacity:0.208" fill="#c1d9ef" d="M 954.5,721.5 C 953.167,723.5 951.5,725.167 949.5,726.5C 949.833,723.5 951.5,721.833 954.5,721.5 Z"/></g>
<g><path style="opacity:0.039" fill="#c7d0f4" d="M 50.5,724.5 C 51.1667,724.5 51.8333,724.5 52.5,724.5C 53.8776,725.545 54.8776,726.878 55.5,728.5C 52.9368,728.269 51.2702,726.935 50.5,724.5 Z"/></g>
<g><path style="opacity:0.204" fill="#7b93e1" d="M 55.5,729.5 C 59.7172,730.05 62.3839,732.383 63.5,736.5C 60.853,734.189 58.1864,731.856 55.5,729.5 Z"/></g>
<g><path style="opacity:0.173" fill="#aec4e9" d="M 320.5,717.5 C 321.708,718.234 323.041,718.567 324.5,718.5C 324.281,719.675 324.614,720.675 325.5,721.5C 328.351,724.521 331.518,727.187 335,729.5C 336.813,731.761 338.313,734.095 339.5,736.5C 333.534,730.741 327.367,725.074 321,719.5C 320.536,718.906 320.369,718.239 320.5,717.5 Z"/></g>
<g><path style="opacity:0.592" fill="#6c88e3" d="M 1225.5,725.5 C 1225.5,726.167 1225.5,726.833 1225.5,727.5C 1222.26,730.281 1219.26,733.281 1216.5,736.5C 1215.5,736.5 1214.5,736.5 1213.5,736.5C 1217.12,732.551 1221.12,728.884 1225.5,725.5 Z"/></g>
<g><path style="opacity:0.216" fill="#adc3e3" d="M 949.5,726.5 C 945.532,730.639 941.699,734.973 938,739.5C 937.601,739.272 937.435,738.938 937.5,738.5C 939.14,735.124 941.306,732.124 944,729.5C 945.741,728.242 947.574,727.242 949.5,726.5 Z"/></g>
<g><path style="opacity:0.057" fill="#c4d6fa" d="M 1213.5,736.5 C 1214.5,736.5 1215.5,736.5 1216.5,736.5C 1215.97,738.446 1214.63,739.446 1212.5,739.5C 1212.5,739.167 1212.5,738.833 1212.5,738.5C 1212.83,737.833 1213.17,737.167 1213.5,736.5 Z"/></g>
<g><path style="opacity:0.42" fill="#a3bbf6" d="M 64.5,737.5 C 65.8333,737.5 66.5,738.167 66.5,739.5C 65.1667,739.5 64.5,738.833 64.5,737.5 Z"/></g>
<g><path style="opacity:0.486" fill="#7d88c4" d="M 339.5,736.5 C 340.5,736.833 341.167,737.5 341.5,738.5C 341.19,739.738 340.69,739.738 340,738.5C 339.536,737.906 339.369,737.239 339.5,736.5 Z"/></g>
<g><path style="opacity:0.137" fill="#aec2e7" d="M 342.5,738.5 C 344.217,740.362 346.217,742.029 348.5,743.5C 349.386,744.325 349.719,745.325 349.5,746.5C 345.703,745.041 343.369,742.374 342.5,738.5 Z"/></g>
<g><path style="opacity:0.71" fill="#a2c1ec" d="M 936.5,738.5 C 936.715,740.179 936.048,741.179 934.5,741.5C 934.285,739.821 934.952,738.821 936.5,738.5 Z"/></g>
<g><path style="opacity:0.184" fill="#b5c2eb" d="M 66.5,739.5 C 68.5,740.167 69.8333,741.5 70.5,743.5C 68.2273,743.043 66.894,741.71 66.5,739.5 Z"/></g>
<g><path style="opacity:0.267" fill="#bbd7f3" d="M 934.5,741.5 C 934.167,742.5 933.5,743.167 932.5,743.5C 931.34,741.797 932.007,741.131 934.5,741.5 Z"/></g>
<g><path style="opacity:0.204" fill="#7990ef" d="M 1212.5,738.5 C 1212.5,738.833 1212.5,739.167 1212.5,739.5C 1211.22,741.452 1209.55,743.118 1207.5,744.5C 1208.47,741.865 1210.14,739.865 1212.5,738.5 Z"/></g>
<g><path style="opacity:0.065" fill="#bdd3f4" d="M 1207.5,745.5 C 1206.47,747.085 1205.13,748.419 1203.5,749.5C 1203.73,747.567 1204.56,745.9 1206,744.5C 1206.38,745.056 1206.88,745.389 1207.5,745.5 Z"/></g>
<g><path style="opacity:0.176" fill="#bad1ea" d="M 932.5,743.5 C 930.146,746.521 927.479,749.188 924.5,751.5C 925.687,749.095 927.187,746.761 929,744.5C 930.011,743.663 931.178,743.33 932.5,743.5 Z"/></g>
<g><path style="opacity:0.392" fill="#b6c3f2" d="M 70.5,743.5 C 75.796,747.96 80.9627,752.626 86,757.5C 86.4643,758.094 86.631,758.761 86.5,759.5C 82.7557,757.595 79.4223,755.095 76.5,752C 74.1208,749.348 72.1208,746.514 70.5,743.5 Z"/></g>
<g><path style="opacity:0.165" fill="#adbfe2" d="M 349.5,746.5 C 351.255,747.072 352.922,747.906 354.5,749C 357.388,751.772 359.721,754.938 361.5,758.5C 361.565,758.938 361.399,759.272 361,759.5C 357.301,754.973 353.468,750.639 349.5,746.5 Z"/></g>
<g><path style="opacity:0.208" fill="#b1c1ec" d="M 1201.5,751.5 C 1199.67,753.063 1198,754.73 1196.5,756.5C 1197,753.507 1198.5,751.174 1201,749.5C 1201.46,750.094 1201.63,750.761 1201.5,751.5 Z"/></g>
<g><path style="opacity:0.176" fill="#a6bce0" d="M 924.5,751.5 C 922.581,754.319 920.415,756.986 918,759.5C 917.601,759.272 917.435,758.938 917.5,758.5C 918.647,754.937 920.98,752.604 924.5,751.5 Z"/></g>
<g><path style="opacity:0.118" fill="#bfcefb" d="M 1196.5,756.5 C 1195.97,758.446 1194.63,759.446 1192.5,759.5C 1193.03,757.554 1194.37,756.554 1196.5,756.5 Z"/></g>
<g><path style="opacity:0.129" fill="#b9c5e4" d="M 362.5,758.5 C 364.048,758.821 364.715,759.821 364.5,761.5C 362.952,761.179 362.285,760.179 362.5,758.5 Z"/></g>
<g><path style="opacity:0.686" fill="#a5c3ea" d="M 916.5,758.5 C 916.715,760.179 916.048,761.179 914.5,761.5C 914.285,759.821 914.952,758.821 916.5,758.5 Z"/></g>
<g><path style="opacity:0.384" fill="#bbc5f0" d="M 86.5,759.5 C 88.8116,760.478 90.4782,762.145 91.5,764.5C 88.6655,763.931 86.9988,762.264 86.5,759.5 Z"/></g>
<g><path style="opacity:0.263" fill="#bdd8f2" d="M 914.5,761.5 C 914.167,762.5 913.5,763.167 912.5,763.5C 911.34,761.797 912.007,761.131 914.5,761.5 Z"/></g>
<g><path style="opacity:0.133" fill="#bcd2f5" d="M 1192.5,760.5 C 1191.34,762.387 1189.68,763.721 1187.5,764.5C 1188.18,762.551 1189.35,760.885 1191,759.5C 1191.38,760.056 1191.88,760.389 1192.5,760.5 Z"/></g>
<g><path style="opacity:0.18" fill="#b1c9e9" d="M 912.5,763.5 C 912.144,765.19 911.144,766.19 909.5,766.5C 909.5,765.5 909.5,764.5 909.5,763.5C 910.5,763.5 911.5,763.5 912.5,763.5 Z"/></g>
<g><path style="opacity:0.122" fill="#bed4ee" d="M 364.5,761.5 C 367.667,762.585 370.334,764.419 372.5,767C 371.944,767.383 371.611,767.883 371.5,768.5C 368.5,766.833 366.167,764.5 364.5,761.5 Z"/></g>
<g><path style="opacity:0.255" fill="#c1d8f4" d="M 909.5,766.5 C 909.167,767.5 908.5,768.167 907.5,768.5C 906.34,766.797 907.007,766.131 909.5,766.5 Z"/></g>
<g><path style="opacity:0.098" fill="#b9c8f4" d="M 1187.5,764.5 C 1187.5,765.5 1187.5,766.5 1187.5,767.5C 1186.32,767.281 1185.32,767.614 1184.5,768.5C 1182.43,771.904 1179.76,774.57 1176.5,776.5C 1178.78,771.223 1182.44,767.223 1187.5,764.5 Z"/></g>
<g><path style="opacity:0.349" fill="#bdc7f0" d="M 91.5,764.5 C 96.365,767.426 100.032,771.426 102.5,776.5C 98.1364,773.136 94.4697,769.136 91.5,764.5 Z"/></g>
<g><path style="opacity:0.157" fill="#b5cdea" d="M 907.5,768.5 C 907.144,770.19 906.144,771.19 904.5,771.5C 904.5,770.5 904.5,769.5 904.5,768.5C 905.5,768.5 906.5,768.5 907.5,768.5 Z"/></g>
<g><path style="opacity:0.027" fill="#afc4e5" d="M 372.5,768.5 C 374.69,769.802 376.69,771.469 378.5,773.5C 379.386,774.325 379.719,775.325 379.5,776.5C 376.227,774.599 373.894,771.932 372.5,768.5 Z"/></g>
<g><path style="opacity:0.149" fill="#a7bddf" d="M 904.5,771.5 C 902.581,774.319 900.415,776.986 898,779.5C 897.601,779.272 897.435,778.938 897.5,778.5C 898.647,774.937 900.98,772.604 904.5,771.5 Z"/></g>
<g><path style="opacity:0.078" fill="#c8d7ee" d="M 102.5,776.5 C 103.833,776.5 104.5,777.167 104.5,778.5C 103.167,778.5 102.5,777.833 102.5,776.5 Z"/></g>
<g><path style="opacity:0.065" fill="#bdcdfa" d="M 1176.5,776.5 C 1175.97,778.446 1174.63,779.446 1172.5,779.5C 1173.03,777.554 1174.37,776.554 1176.5,776.5 Z"/></g>
<g><path style="opacity:0.518" fill="#7783c6" d="M 379.5,776.5 C 380.5,776.833 381.167,777.5 381.5,778.5C 381.19,779.738 380.69,779.738 380,778.5C 379.536,777.906 379.369,777.239 379.5,776.5 Z"/></g>
<g><path style="opacity:0.11" fill="#bac7df" d="M 382.5,778.5 C 384.048,778.821 384.715,779.821 384.5,781.5C 382.952,781.179 382.285,780.179 382.5,778.5 Z"/></g>
<g><path style="opacity:0.671" fill="#a7c1e7" d="M 896.5,778.5 C 896.715,780.179 896.048,781.179 894.5,781.5C 894.285,779.821 894.952,778.821 896.5,778.5 Z"/></g>
<g><path style="opacity:0.046" fill="#afbced" d="M 106.5,779.5 C 108.5,780.167 109.833,781.5 110.5,783.5C 109.292,782.766 107.959,782.433 106.5,782.5C 106.5,781.5 106.5,780.5 106.5,779.5 Z"/></g>
<g><path style="opacity:0.063" fill="#bdcef6" d="M 1172.5,779.5 C 1172.5,780.5 1172.5,781.5 1172.5,782.5C 1170.8,782.527 1169.47,783.194 1168.5,784.5C 1168.74,781.931 1170.07,780.265 1172.5,779.5 Z"/></g>
<g><path style="opacity:0.035" fill="#aec5e4" d="M 384.5,781.5 C 387.335,782.069 389.001,783.736 389.5,786.5C 389.001,783.736 387.335,782.069 384.5,781.5 Z"/></g>
<g><path style="opacity:0.165" fill="#bcd3ec" d="M 894.5,781.5 C 893.167,783.5 891.5,785.167 889.5,786.5C 889.999,783.736 891.665,782.069 894.5,781.5 Z"/></g>
<g><path style="opacity:0.067" fill="#c3ccf7" d="M 111.5,784.5 C 113.144,784.81 114.144,785.81 114.5,787.5C 113.5,787.5 112.5,787.5 111.5,787.5C 111.5,786.5 111.5,785.5 111.5,784.5 Z"/></g>
<g><path style="opacity:0.118" fill="#bdd3f3" d="M 389.5,786.5 C 390.833,786.5 391.5,787.167 391.5,788.5C 390.5,788.167 389.833,787.5 389.5,786.5 Z"/></g>
<g><path style="opacity:0.188" fill="#c7d6f2" d="M 889.5,786.5 C 889.167,787.5 888.5,788.167 887.5,788.5C 886.34,786.797 887.007,786.131 889.5,786.5 Z"/></g>
<g><path style="opacity:0.145" fill="#b9c8f4" d="M 1167.5,784.5 C 1167.72,785.675 1167.39,786.675 1166.5,787.5C 1163.38,790.556 1160.05,793.222 1156.5,795.5C 1159.19,790.812 1162.85,787.145 1167.5,784.5 Z"/></g>
<g><path style="opacity:0.137" fill="#adc0e1" d="M 392.5,788.5 C 393.496,788.414 394.329,788.748 395,789.5C 397.74,792.076 399.907,795.076 401.5,798.5C 401.565,798.938 401.399,799.272 401,799.5C 397.878,795.901 395.045,792.234 392.5,788.5 Z"/></g>
<g><path style="opacity:0.404" fill="#acb6e9" d="M 114.5,787.5 C 118.145,789.145 120.812,791.812 122.5,795.5C 118.795,793.963 116.128,791.297 114.5,787.5 Z"/></g>
<g><path style="opacity:0.459" fill="#b2c7e4" d="M 887.5,788.5 C 884.198,791.974 881.032,795.641 878,799.5C 877.601,799.272 877.435,798.938 877.5,798.5C 879.871,794.129 883.204,790.796 887.5,788.5 Z"/></g>
<g><path style="opacity:0.082" fill="#c6d5ed" d="M 122.5,796.5 C 123.167,796.5 123.833,796.5 124.5,796.5C 124.5,797.167 124.5,797.833 124.5,798.5C 123.167,798.5 122.5,797.833 122.5,796.5 Z"/></g>
<g><path style="opacity:0.102" fill="#bacde9" d="M 402.5,798.5 C 405.367,800.519 408.033,802.852 410.5,805.5C 411.386,806.325 411.719,807.325 411.5,808.5C 407.749,805.754 404.749,802.42 402.5,798.5 Z"/></g>
<g><path style="opacity:0.161" fill="#8797dc" d="M 124.5,796.5 C 128.722,799.296 132.056,802.963 134.5,807.5C 133.5,807.5 132.5,807.5 131.5,807.5C 131.833,804.5 130.5,803.167 127.5,803.5C 127.727,801.067 126.727,799.401 124.5,798.5C 124.5,797.833 124.5,797.167 124.5,796.5 Z"/></g>
<g><path style="opacity:0.078" fill="#b7c3ef" d="M 1156.5,796.5 C 1154.43,798.569 1152.76,800.902 1151.5,803.5C 1150.5,803.5 1149.5,803.5 1148.5,803.5C 1148.51,801.983 1149.18,800.816 1150.5,800C 1152.4,798.579 1154.4,797.412 1156.5,796.5 Z"/></g>
<g><path style="opacity:0.11" fill="#c3cef4" d="M 1148.5,803.5 C 1148.46,804.583 1148.13,805.583 1147.5,806.5C 1143.92,809.758 1140.25,812.758 1136.5,815.5C 1139.55,811.461 1142.89,807.628 1146.5,804C 1147.09,803.536 1147.76,803.369 1148.5,803.5 Z"/></g>
<g><path style="opacity:0.075" fill="#cbd9f9" d="M 134.5,807.5 C 135.5,807.833 136.167,808.5 136.5,809.5C 134.007,809.869 133.34,809.203 134.5,807.5 Z"/></g>
<g><path style="opacity:0.106" fill="#b8cde9" d="M 876.5,798.5 C 876.719,799.675 876.386,800.675 875.5,801.5C 869.704,807.475 863.704,813.141 857.5,818.5C 858.153,817.193 858.82,815.86 859.5,814.5C 864.879,808.785 870.546,803.452 876.5,798.5 Z"/></g>
<g><path style="opacity:0.149" fill="#b8cce8" d="M 412.5,808.5 C 413.239,808.369 413.906,808.536 414.5,809C 416.364,811.688 418.364,814.188 420.5,816.5C 416.833,814.833 414.167,812.167 412.5,808.5 Z"/></g>
<g><path style="opacity:0.063" fill="#b7c0e9" d="M 136.5,809.5 C 138.775,810.111 140.441,811.445 141.5,813.5C 141.833,814.167 142.167,814.833 142.5,815.5C 139.19,814.839 137.19,812.839 136.5,809.5 Z"/></g>
<g><path style="opacity:0.996" fill="#425ac7" d="M 141.5,813.5 C 142.833,813.5 144.167,813.5 145.5,813.5C 145.833,815.5 146.167,817.5 146.5,819.5C 145.833,819.167 145.167,818.833 144.5,818.5C 144.5,817.167 143.833,816.5 142.5,816.5C 142.5,816.167 142.5,815.833 142.5,815.5C 142.167,814.833 141.833,814.167 141.5,813.5 Z"/></g>
<g><path style="opacity:0.082" fill="#c4d4ec" d="M 142.5,816.5 C 143.833,816.5 144.5,817.167 144.5,818.5C 143.167,818.5 142.5,817.833 142.5,816.5 Z"/></g>
<g><path style="opacity:0.02" fill="#b9c9ed" d="M 1136.5,816.5 C 1136.18,818.048 1135.18,818.715 1133.5,818.5C 1133.82,816.952 1134.82,816.285 1136.5,816.5 Z"/></g>
<g><path style="opacity:0.651" fill="#99bcf1" d="M 856.5,818.5 C 856.262,821.069 854.929,822.735 852.5,823.5C 852.738,820.931 854.071,819.265 856.5,818.5 Z"/></g>
<g><path style="opacity:0.188" fill="#b2c8e8" d="M 422.5,818.5 C 425.114,820.109 427.447,822.109 429.5,824.5C 430.63,825.622 431.297,826.956 431.5,828.5C 428.633,826.481 425.967,824.148 423.5,821.5C 422.614,820.675 422.281,819.675 422.5,818.5 Z"/></g>
<g><path style="opacity:0.161" fill="#bbcbf2" d="M 1132.5,819.5 C 1132.72,820.675 1132.39,821.675 1131.5,822.5C 1128.17,825.833 1124.83,829.167 1121.5,832.5C 1120.58,833.127 1119.58,833.461 1118.5,833.5C 1122.5,828.167 1127.17,823.5 1132.5,819.5 Z"/></g>
<g><path style="opacity:0.192" fill="#bcd1f3" d="M 852.5,823.5 C 851.5,825.833 849.833,827.5 847.5,828.5C 847.833,825.5 849.5,823.833 852.5,823.5 Z"/></g>
<g><path style="opacity:0.008" fill="#b2c4e4" d="M 432.5,828.5 C 434.017,828.511 435.184,829.177 436,830.5C 438.412,832.749 440.245,835.416 441.5,838.5C 438.633,836.481 435.967,834.148 433.5,831.5C 432.614,830.675 432.281,829.675 432.5,828.5 Z"/></g>
<g><path style="opacity:0.333" fill="#bdcbf3" d="M 146.5,819.5 C 152.452,824.118 157.785,829.452 162.5,835.5C 160.606,834.952 158.94,833.952 157.5,832.5C 154.167,829.167 150.833,825.833 147.5,822.5C 146.614,821.675 146.281,820.675 146.5,819.5 Z"/></g>
<g><path style="opacity:0.063" fill="#b6c9e4" d="M 846.5,828.5 C 846.719,829.675 846.386,830.675 845.5,831.5C 843.033,834.148 840.367,836.481 837.5,838.5C 838.153,837.193 838.82,835.86 839.5,834.5C 841.553,832.109 843.886,830.109 846.5,828.5 Z"/></g>
<g><path style="opacity:0.118" fill="#b6cbf3" d="M 162.5,836.5 C 164.404,836.738 165.738,837.738 166.5,839.5C 164.368,839.446 163.035,838.446 162.5,836.5 Z"/></g>
<g><path style="opacity:0.141" fill="#acbdf1" d="M 1118.5,833.5 C 1117.54,836.107 1115.87,838.107 1113.5,839.5C 1113.76,836.301 1115.43,834.301 1118.5,833.5 Z"/></g>
<g><path style="opacity:0.247" fill="#bad1ea" d="M 836.5,838.5 C 836.226,840.981 834.893,842.647 832.5,843.5C 832.738,840.931 834.071,839.265 836.5,838.5 Z"/></g>
<g><path style="opacity:0.11" fill="#bccaf4" d="M 166.5,839.5 C 172.5,844.167 177.833,849.5 182.5,855.5C 180.606,854.952 178.94,853.952 177.5,852.5C 174.167,849.167 170.833,845.833 167.5,842.5C 166.614,841.675 166.281,840.675 166.5,839.5 Z"/></g>
<g><path style="opacity:0.024" fill="#a9c1ea" d="M 442.5,838.5 C 445.367,840.519 448.033,842.852 450.5,845.5C 451.386,846.325 451.719,847.325 451.5,848.5C 448.56,846.402 445.726,844.069 443,841.5C 442.517,840.552 442.351,839.552 442.5,838.5 Z"/></g>
<g><path style="opacity:0.188" fill="#bfd5f5" d="M 832.5,843.5 C 831.167,845.5 829.5,847.167 827.5,848.5C 827.833,845.5 829.5,843.833 832.5,843.5 Z"/></g>
<g><path style="opacity:0.012" fill="#bac9f3" d="M 1112.5,839.5 C 1112.72,840.675 1112.39,841.675 1111.5,842.5C 1106.62,846.175 1102.95,850.342 1100.5,855C 1099.21,855.49 1097.87,855.657 1096.5,855.5C 1101.19,849.479 1106.52,844.146 1112.5,839.5 Z"/></g>
<g><path style="opacity:0.02" fill="#b2c7e6" d="M 452.5,848.5 C 455.133,850.132 457.467,852.132 459.5,854.5C 460.246,855.736 460.579,857.07 460.5,858.5C 457.412,855.422 454.745,852.089 452.5,848.5 Z"/></g>
<g><path style="opacity:0.075" fill="#b5c9e7" d="M 826.5,848.5 C 826.719,849.675 826.386,850.675 825.5,851.5C 823.033,854.148 820.367,856.481 817.5,858.5C 818.153,857.193 818.82,855.86 819.5,854.5C 821.553,852.109 823.886,850.109 826.5,848.5 Z"/></g>
<g><path style="opacity:0.118" fill="#b9cdf3" d="M 182.5,856.5 C 184.404,856.738 185.738,857.738 186.5,859.5C 184.368,859.446 183.035,858.446 182.5,856.5 Z"/></g>
<g><path style="opacity:0.071" fill="#bacbea" d="M 462.5,858.5 C 464.929,859.265 466.262,860.931 466.5,863.5C 464.107,862.647 462.774,860.981 462.5,858.5 Z"/></g>
<g><path style="opacity:0.086" fill="#c2d2ef" d="M 816.5,858.5 C 815.92,860.749 814.587,862.415 812.5,863.5C 812.738,860.931 814.071,859.265 816.5,858.5 Z"/></g>
<g><path style="opacity:0.824" fill="#97a0f3" d="M 812.5,863.5 C 811.876,865.754 810.543,867.421 808.5,868.5C 808.5,867.5 808.5,866.5 808.5,865.5C 809.833,864.833 811.167,864.167 812.5,863.5 Z"/></g>
<g><path style="opacity:0.118" fill="#e8f4ee" d="M 808.5,865.5 C 808.5,866.5 808.5,867.5 808.5,868.5C 807.833,868.833 807.167,869.167 806.5,869.5C 805.939,867.934 806.606,866.601 808.5,865.5 Z"/></g>
<g><path style="opacity:0.102" fill="#bcc9f2" d="M 1096.5,856.5 C 1096.42,857.75 1095.76,858.583 1094.5,859C 1094.83,859.333 1095.17,859.667 1095.5,860C 1090.72,862.708 1086.38,865.874 1082.5,869.5C 1080.46,873.025 1078.13,876.358 1075.5,879.5C 1072.97,880.901 1070.64,882.567 1068.5,884.5C 1063.72,889.947 1058.72,894.947 1053.5,899.5C 1053.35,898.448 1053.52,897.448 1054,896.5C 1063.5,887.667 1072.67,878.5 1081.5,869C 1086.08,864.252 1091.08,860.085 1096.5,856.5 Z"/></g>
<g><path style="opacity:0.043" fill="#b9c7f4" d="M 186.5,859.5 C 192.5,864.167 197.833,869.5 202.5,875.5C 198.756,873.595 195.422,871.095 192.5,868C 191.333,865.5 189.5,863.667 187,862.5C 186.517,861.552 186.351,860.552 186.5,859.5 Z"/></g>
<g><path style="opacity:0.037" fill="#bcd1ef" d="M 806.5,869.5 C 803.88,874.138 801.213,878.805 798.5,883.5C 797.817,883.863 797.15,884.196 796.5,884.5C 796.389,883.883 796.056,883.383 795.5,883C 798.337,877.732 802.004,873.232 806.5,869.5 Z"/></g>
<g><path style="opacity:0.067" fill="#bacef3" d="M 202.5,876.5 C 204.404,876.738 205.738,877.738 206.5,879.5C 204.368,879.446 203.035,878.446 202.5,876.5 Z"/></g>
<g><path style="opacity:0.333" fill="#b0c0eb" d="M 466.5,863.5 C 468.394,864.048 470.06,865.048 471.5,866.5C 473.4,869.718 475.566,872.718 478,875.5C 481.864,881.388 485.364,887.554 488.5,894C 487.944,894.383 487.611,894.883 487.5,895.5C 481.601,884.188 474.601,873.521 466.5,863.5 Z"/></g>
<g><path style="opacity:0.063" fill="#b5c2f1" d="M 206.5,879.5 C 218.945,891.06 230.945,903.06 242.5,915.5C 240.956,915.297 239.622,914.63 238.5,913.5C 228.31,903.057 217.977,892.724 207.5,882.5C 206.873,881.583 206.539,880.583 206.5,879.5 Z"/></g>
<g><path style="opacity:0.392" fill="#c0d6f1" d="M 796.5,884.5 C 795.618,888.593 793.951,892.26 791.5,895.5C 791.196,894.85 790.863,894.183 790.5,893.5C 792.514,890.34 794.514,887.34 796.5,884.5 Z"/></g>
<g><path style="opacity:0.294" fill="#b0c4f0" d="M 487.5,895.5 C 490.907,900.788 492.574,906.788 492.5,913.5C 490.063,907.836 488.396,901.836 487.5,895.5 Z"/></g>
<g><path style="opacity:0.549" fill="#b0c6f2" d="M 791.5,895.5 C 790.881,899.93 789.881,904.263 788.5,908.5C 787.833,909.5 787.167,910.5 786.5,911.5C 787.471,906.868 788.471,902.202 789.5,897.5C 789.747,896.287 790.414,895.62 791.5,895.5 Z"/></g>
<g><path style="opacity:0.059" fill="#bcd5e3" d="M 492.5,914.5 C 494.176,915.183 494.843,916.517 494.5,918.5C 493.833,918.5 493.167,918.5 492.5,918.5C 492.5,917.167 492.5,915.833 492.5,914.5 Z"/></g>
<g><path style="opacity:0.502" fill="#859ff1" d="M 788.5,908.5 C 787.833,912.833 787.167,917.167 786.5,921.5C 785.833,921.5 785.167,921.5 784.5,921.5C 784.757,918.068 785.424,914.734 786.5,911.5C 787.167,910.5 787.833,909.5 788.5,908.5 Z"/></g>
<g><path style="opacity:0.192" fill="#bbc6f2" d="M 1052.5,899.5 C 1051.37,901.315 1050.7,903.315 1050.5,905.5C 1049.45,905.351 1048.45,905.517 1047.5,906C 1045.12,908.841 1042.79,911.674 1040.5,914.5C 1039.31,915.429 1037.98,915.762 1036.5,915.5C 1036.58,916.93 1036.25,918.264 1035.5,919.5C 1029.45,923.555 1024.45,928.555 1020.5,934.5C 1019.31,935.429 1017.98,935.762 1016.5,935.5C 1016.58,936.93 1016.25,938.264 1015.5,939.5C 1009.5,944.835 1003.5,950.168 997.5,955.5C 998.412,953.405 999.579,951.405 1001,949.5C 1006.35,944.982 1011.18,939.982 1015.5,934.5C 1027.62,922.569 1039.95,910.903 1052.5,899.5 Z"/></g>
<g><path style="opacity:0.008" fill="#b9c4f0" d="M 242.5,916.5 C 249.812,922.089 256.478,928.423 262.5,935.5C 259.094,933.932 256.094,931.765 253.5,929C 249.465,925.052 245.798,920.885 242.5,916.5 Z"/></g>
<g><path style="opacity:0.644" fill="#4668c9" d="M 784.5,921.5 C 785.167,921.5 785.833,921.5 786.5,921.5C 786.5,928.833 786.5,936.167 786.5,943.5C 785.833,943.5 785.167,943.5 784.5,943.5C 784.5,936.167 784.5,928.833 784.5,921.5 Z"/></g>
<g><path style="opacity:0.343" fill="#3b5cb8" d="M 492.5,918.5 C 493.167,918.5 493.833,918.5 494.5,918.5C 494.5,926.833 494.5,935.167 494.5,943.5C 493.833,943.5 493.167,943.5 492.5,943.5C 492.5,935.167 492.5,926.833 492.5,918.5 Z"/></g>
<g><path style="opacity:0.32" fill="#b2d1e9" d="M 784.5,943.5 C 785.167,943.5 785.833,943.5 786.5,943.5C 786.5,945.167 786.5,946.833 786.5,948.5C 784.787,947.365 784.12,945.698 784.5,943.5 Z"/></g>
<g><path style="opacity:0.012" fill="#bedfdd" d="M 492.5,943.5 C 493.167,943.5 493.833,943.5 494.5,943.5C 494.946,946.01 494.28,948.01 492.5,949.5C 492.5,947.5 492.5,945.5 492.5,943.5 Z"/></g>
<g><path style="opacity:0.078" fill="#b8c4f1" d="M 262.5,935.5 C 266.767,939.428 271.1,943.428 275.5,947.5C 277.934,949.921 279.934,952.588 281.5,955.5C 275.347,949.912 269.181,944.245 263,938.5C 262.517,937.552 262.351,936.552 262.5,935.5 Z"/></g>
<g><path style="opacity:0.467" fill="#90aadf" d="M 492.5,951.5 C 491.861,955.527 491.028,959.527 490,963.5C 489.764,965.119 488.931,966.119 487.5,966.5C 487.806,960.9 489.473,955.9 492.5,951.5 Z"/></g>
<g><path style="opacity:0.275" fill="#c0d7f0" d="M 786.5,951.5 C 787.931,952.78 788.598,954.447 788.5,956.5C 788.5,957.5 788.5,958.5 788.5,959.5C 787.232,957.095 786.565,954.428 786.5,951.5 Z"/></g>
<g><path style="opacity:0.012" fill="#c5cff0" d="M 996.5,956.5 C 996.406,959.068 995.072,960.568 992.5,961C 988.649,965.681 984.649,970.181 980.5,974.5C 979.311,975.429 977.978,975.762 976.5,975.5C 981.859,969.296 987.525,963.296 993.5,957.5C 994.325,956.614 995.325,956.281 996.5,956.5 Z"/></g>
<g><path style="opacity:0.416" fill="#b9c4f0" d="M 282.5,956.5 C 287.073,959.728 291.407,963.395 295.5,967.5C 297.934,969.921 299.934,972.588 301.5,975.5C 299.022,973.197 296.355,971.031 293.5,969C 289.465,965.052 285.798,960.885 282.5,956.5 Z"/></g>
<g><path style="opacity:0.078" fill="#9db6e5" d="M 788.5,956.5 C 791.336,963.667 794.003,971 796.5,978.5C 797.5,978.5 798.5,978.5 799.5,978.5C 799.878,980.921 800.545,983.254 801.5,985.5C 800.833,985.5 800.167,985.5 799.5,985.5C 796.136,979.94 793.136,974.107 790.5,968C 790.833,967.667 791.167,967.333 791.5,967C 789.241,965.065 788.241,962.565 788.5,959.5C 788.5,958.5 788.5,957.5 788.5,956.5 Z"/></g>
<g><path style="opacity:0.016" fill="#a9bdf4" d="M 302.5,976.5 C 304.619,976.468 305.952,977.468 306.5,979.5C 304.381,979.532 303.048,978.532 302.5,976.5 Z"/></g>
<g><path style="opacity:0.208" fill="#bfcbf2" d="M 976.5,975.5 C 976.291,976.922 975.791,978.255 975,979.5C 972.008,982.122 969.008,984.789 966,987.5C 965.517,988.448 965.351,989.448 965.5,990.5C 962.167,990.5 960.5,992.167 960.5,995.5C 959.167,995.5 957.833,995.5 956.5,995.5C 962.612,989.217 968.612,982.717 974.5,976C 975.094,975.536 975.761,975.369 976.5,975.5 Z"/></g>
<g><path style="opacity:0.053" fill="#f5faf4" d="M 799.5,985.5 C 800.167,985.5 800.833,985.5 801.5,985.5C 801.5,986.167 801.5,986.833 801.5,987.5C 800.167,987.5 799.5,986.833 799.5,985.5 Z"/></g>
<g><path style="opacity:0.443" fill="#bbc6f0" d="M 306.5,979.5 C 312.199,984.198 317.199,989.531 321.5,995.5C 315.584,990.98 310.584,985.647 306.5,979.5 Z"/></g>
<g><path style="opacity:0.016" fill="#a2b8e7" d="M 487.5,966.5 C 487.611,967.117 487.944,967.617 488.5,968C 483.73,979.151 477.396,989.317 469.5,998.5C 466.561,1001.78 463.227,1004.45 459.5,1006.5C 464.75,1000.74 469.917,994.737 475,988.5C 477.324,985.52 478.824,982.187 479.5,978.5C 480.5,978.5 481.5,978.5 482.5,978.5C 483.648,974.213 485.315,970.213 487.5,966.5 Z"/></g>
<g><path style="opacity:0.078" fill="#a8c1ee" d="M 801.5,985.5 C 806.947,992.672 812.947,999.339 819.5,1005.5C 819.833,1006.17 820.167,1006.83 820.5,1007.5C 812.473,1002.47 806.14,995.806 801.5,987.5C 801.5,986.833 801.5,986.167 801.5,985.5 Z"/></g>
<g><path style="opacity:0.012" fill="#aac2eb" d="M 322.5,996.5 C 323.675,996.281 324.675,996.614 325.5,997.5C 328.583,1000.24 331.249,1003.24 333.5,1006.5C 329.229,1003.9 325.563,1000.57 322.5,996.5 Z"/></g>
<g><path style="opacity:0.012" fill="#8da8ca" d="M 333.5,1006.5 C 336.069,1006.74 337.735,1008.07 338.5,1010.5C 335.937,1010.27 334.27,1008.94 333.5,1006.5 Z"/></g>
<g><path style="opacity:0.051" fill="#a4b9ed" d="M 458.5,1007.5 C 457.415,1009.59 455.749,1010.92 453.5,1011.5C 453.414,1010.5 453.748,1009.67 454.5,1009C 455.931,1008.53 457.097,1007.7 458,1006.5C 458.399,1006.73 458.565,1007.06 458.5,1007.5 Z"/></g>
<g><path style="opacity:0.325" fill="#b4cbd7" d="M 338.5,1010.5 C 339.167,1010.5 339.833,1010.5 340.5,1010.5C 340.833,1011.17 341.167,1011.83 341.5,1012.5C 339.973,1012.57 338.973,1011.91 338.5,1010.5 Z"/></g>
<g><path style="opacity:0.141" fill="#88a0d8" d="M 340.5,1010.5 C 345.651,1013.91 350.984,1017.08 356.5,1020C 360.203,1021.19 363.87,1022.36 367.5,1023.5C 367.5,1024.17 367.5,1024.83 367.5,1025.5C 357.633,1023.23 348.966,1018.9 341.5,1012.5C 341.167,1011.83 340.833,1011.17 340.5,1010.5 Z"/></g>
<g><path style="opacity:0.314" fill="#98b1e6" d="M 956.5,995.5 C 956.461,996.583 956.127,997.583 955.5,998.5C 944.745,1008.64 932.745,1016.97 919.5,1023.5C 916.87,1024.38 914.203,1025.05 911.5,1025.5C 911.5,1024.83 911.5,1024.17 911.5,1023.5C 914.301,1022.23 917.301,1021.4 920.5,1021C 933.813,1014.19 945.813,1005.69 956.5,995.5 Z"/></g>
<g><path style="opacity:0.788" fill="#869ee3" d="M 819.5,1005.5 C 833.811,1016.98 850.145,1024.15 868.5,1027C 869.252,1027.67 869.586,1028.5 869.5,1029.5C 862.961,1027.82 856.294,1026.32 849.5,1025C 842.372,1022.07 835.538,1018.57 829,1014.5C 825.8,1012.6 822.966,1010.27 820.5,1007.5C 820.167,1006.83 819.833,1006.17 819.5,1005.5 Z"/></g>
<g><path style="opacity:0.188" fill="#7994d6" d="M 452.5,1011.5 C 449.664,1014.48 446.331,1016.98 442.5,1019C 435.839,1021.62 429.172,1024.12 422.5,1026.5C 422.5,1025.83 422.5,1025.17 422.5,1024.5C 432.881,1021.07 442.881,1016.74 452.5,1011.5 Z"/></g>
<g><path style="opacity:0.545" fill="#6d82d4" d="M 367.5,1023.5 C 372.595,1025.61 377.929,1026.77 383.5,1027C 384.252,1027.67 384.586,1028.5 384.5,1029.5C 378.878,1028.28 373.211,1026.95 367.5,1025.5C 367.5,1024.83 367.5,1024.17 367.5,1023.5 Z"/></g>
<g><path style="opacity:0.102" fill="#6b87dc" d="M 911.5,1023.5 C 911.5,1024.17 911.5,1024.83 911.5,1025.5C 905.286,1027.3 898.953,1028.64 892.5,1029.5C 892.5,1028.5 892.5,1027.5 892.5,1026.5C 899.082,1026.51 905.415,1025.51 911.5,1023.5 Z"/></g>
<g><path style="opacity:0.039" fill="#516bcd" d="M 422.5,1024.5 C 422.5,1025.17 422.5,1025.83 422.5,1026.5C 417.081,1027.12 411.747,1028.12 406.5,1029.5C 406.574,1027.59 407.574,1026.42 409.5,1026C 413.882,1025.71 418.215,1025.21 422.5,1024.5 Z"/></g>
</svg>
